<?xml version="1.0" encoding="utf-8"?>
<!-- Generator: Adobe Illustrator 22.1.0, SVG Export Plug-In . SVG Version: 6.00 Build 0)  -->
<svg version="1.1" xmlns="http://www.w3.org/2000/svg" xmlns:xlink="http://www.w3.org/1999/xlink" x="0px" y="0px"
	 viewBox="0 0 800 300" style="enable-background:new 0 0 800 300;" xml:space="preserve">
<g id="Layer_1">
	<g>
		<path d="M79.7,233.9c-0.8,0.8-1.4,1.4-1.6,1.7c-0.2,0.3-0.5,0.7-0.9,1.1h-0.3c0,0.2-0.1,0.4-0.2,0.5c-0.1,0.1-0.2,0.3-0.2,0.5
			c-0.4,0.2-0.7,0.5-0.9,0.8c-0.2,0.3-0.5,0.6-0.9,0.8v0.3c-0.4,0.4-0.7,0.7-0.9,0.8c-0.2,0.1-0.4,0.4-0.6,0.8h-0.3v0.3
			c-0.2,0.4-0.8,1-1.7,1.7c-0.9,0.7-1.9,1.5-2.8,2.4c-0.9,0.8-1.9,1.6-2.8,2.2c-0.9,0.6-1.5,0.9-1.7,0.9v-0.3
			c-0.2,0.4-0.5,0.6-0.8,0.6c-0.3,0-0.6,0.2-0.8,0.6l-1.9,0.9v-0.3c-0.2,0-0.3,0-0.3,0.2c0,0.1-0.1,0.2-0.3,0.2l-0.3,0.3h0.3
			c-0.6,0.2-1.3,0.5-2.1,0.8c-0.7,0.3-1.4,0.7-2.1,1.1l-0.3-1.3h0.3c0.2,0,0.3-0.1,0.3-0.3V251v-0.3c-0.4,0.2-0.9,0.4-1.6,0.6
			c-0.6,0.2-1.2,0.3-1.6,0.3l-0.6,0.6l-0.3-0.3h-0.3l-0.3,0.3l-0.6,0.6l0.3,0.9l1.6-1.3l-0.3-0.3l0.6,0.3h0.6l0.9-0.6l1.3,0.9
			l-0.6,0.3H54c-0.2,0-0.3-0.1-0.3-0.3v0.3l-0.6,0.3v-0.3l-0.6,0.3l0.3,0.3h-0.3l-1.9,0.6c-0.4,0.4-2,0.9-4.6,1.6
			c-2.6,0.6-4.7,0.9-6.2,0.9c-1.9,0-4.1-0.2-6.6-0.5c-2.5-0.3-4.9-1.3-7-3l-0.3-0.3c-0.2-0.2-0.4-0.3-0.6-0.3v-0.3l-0.6-0.3h-0.3
			l-0.3-0.3l-0.6-0.6l-0.6-0.6l-2.2-2.2v0.3c-0.8-0.8-1.5-1.6-1.9-2.4c-0.4-0.7-0.8-1.6-1.3-2.7l-0.6-0.9H17l-0.3-0.3l-0.3-0.3v-0.3
			l-1.3-2.8V238l-0.3-0.9v-0.9c-0.2-0.8-0.4-1.7-0.5-2.5c-0.1-0.8-0.3-1.5-0.5-1.9h0.3v0.6l0.9,0.6l0.6,0.3h-0.3l0.6,0.6l0.6,2.2
			h-0.3c0.2,0.6,0.4,1.2,0.6,1.6c0,0.2,0.2,0.5,0.6,0.9c0.2,0.2,0.3,0.4,0.3,0.6l1.9,3.2h-0.3v0.3l0.9,0.9c0.4,0.4,0.7,0.8,0.8,1.3
			c0.1,0.4,0.4,0.8,0.8,1.3v0.3l1.9,1.6c0.6,0.4,1.2,0.9,1.6,1.6c0.4,0.6,1.1,0.9,1.9,0.9v0.3c0.8,0.2,1.6,0.5,2.2,0.8
			c0.6,0.3,1.2,0.6,1.6,0.8v0.3l0.3,0.3c0.2,0,0.3-0.1,0.3-0.3h0.9c0.2,0,0.3,0,0.3,0.2c0,0.1,0.1,0.2,0.3,0.2
			c0.2,0,0.3-0.1,0.3-0.2c0-0.1,0.1-0.2,0.3-0.2c0.4,0.2,0.9,0.3,1.6,0.3l0.6,0.3l-0.3,0.6h1.3l0.3-0.3l-0.3-0.6
			c0.8,0,1.5,0.1,1.9,0.3v-0.3c0.4,0.2,0.8,0.3,1.3,0.3c0.4,0,0.7-0.1,0.9-0.3c0,0.2-0.1,0.3-0.3,0.3h0.3l0.3-0.3
			c0.4-0.2,0.9-0.3,1.6-0.2c0.6,0.1,1.2,0,1.6-0.2h-2.5c-5.9,0-10.8-1.5-14.6-4.6c-3.8-3.1-6.8-7-8.9-11.7c-2.1-4.7-3.6-10-4.4-15.8
			c-0.8-5.8-1.3-11.4-1.3-16.9c0-8.4,0.8-17.1,2.4-25.9c1.6-8.9,3.6-17.6,6-26.1c2.4-8.5,5.1-16.7,7.9-24.4
			c2.8-7.7,5.6-14.6,8.4-20.7c3.4-7.6,7.2-16.1,11.5-25.6c4.3-9.5,9.1-18.3,14.4-26.6c5.3-8.2,10.9-15.2,16.8-20.9
			c5.9-5.7,12-8.5,18.3-8.5c4.2,0,7.6,1.5,10.3,4.4c2.6,3,4.7,6.5,6.3,10.8c1.6,4.2,2.7,8.5,3.3,13c0.6,4.4,0.9,8.2,0.9,11.4
			c0,13.1-1.8,26.5-5.5,40.2c-3.7,13.7-8.1,26.8-13.1,39.2c-1.5,4.9-3,9.6-4.6,14.4c-1.6,4.7-3.6,9-6.2,12.8l-0.6,0.6
			c0,0.2-0.1,0.4-0.2,0.5c-0.1,0.1-0.2,0.3-0.2,0.5l-0.6,0.6c0,0.2-0.1,0.4-0.2,0.5c-0.1,0.1-0.2,0.3-0.2,0.5l-0.6,0.9l-0.3,0.6
			l-0.3,0.6l-2.2,3.5h0.3c-1.7,2.3-3.4,4.3-5.1,6l-0.3,0.3l-0.9,0.9v-0.3l-0.3,0.3c-0.2,0.2-0.3,0.3-0.2,0.3c0.1,0-0.1,0.1-0.5,0.3
			l-2.5,1.3l-2.2,0.9c-0.2,0.2-0.4,0.3-0.6,0.3h-0.9h-1.6l-0.9-0.6v0.3c-1.5-0.4-2.7-1.1-3.6-2.1c-0.9-0.9-1.6-1.7-2.1-2.4l0.3,0.6
			l0.6,0.3l1.3,0.3v-0.3l0.3,0.3v-0.3l0.3,0.3l1.3,0.6c0.8,0.4,1.6,0.6,2.2,0.6v0.3c0.4-0.2,0.8-0.3,1.1-0.3c0.3,0,0.7-0.1,1.1-0.3
			h0.3c0.4,0,0.7-0.1,0.9-0.3c0.2-0.2,0.4-0.3,0.6-0.3h0.3c1.7-1.1,3.1-2.2,4.1-3.5v0.6c0-0.2,0-0.3,0.2-0.2
			c0.1,0.1,0.2,0.1,0.2-0.2c0.2-0.4,0.5-0.9,0.9-1.6c0.8-1.3,1.7-2.3,2.5-3.2l0.6-0.3c0-0.6,0.1-1.2,0.3-1.6l1.3-1.6
			c0.2-0.2,0.3-0.4,0.3-0.6c0-0.2,0.1-0.4,0.3-0.6c-2.5,3.4-5,6.2-7.4,8.4c-2.4,2.2-4.7,3.3-6.8,3.3c-3.4,0-5.1-2.8-5.1-8.5
			c0-3.6,0.6-6.2,1.7-7.9c1.2-1.7,1.9-2.5,2.4-2.5c0.6,0,0.9,0.2,0.9,0.6c0,0.2-0.2,0.9-0.6,2.2c-0.4,1.3-0.6,3.2-0.6,5.7
			c0,1.7,0.3,2.5,0.9,2.5l0.6-0.3c4.2-4,8.1-10.3,11.5-19c3.5-8.6,6.5-18,9-28.2c2.5-10.1,4.5-20.3,5.9-30.5
			c1.4-10.2,2.1-18.9,2.1-26.1c0-1.9-0.1-3.6-0.2-5.1c-0.1-1.5-0.2-3.2-0.2-5.1c-0.2-4.4-0.6-8.1-1.1-11.1c-0.5-3-1-4.8-1.4-5.7
			v-0.3c-3,2.3-5.5,4.4-7.6,6.3c-2.1,1.9-4.3,4-6.5,6.3c-2.2,2.3-4.1,4.5-5.5,6.6c-7.8,11.2-14.9,22.9-21.4,35.3
			c-6.4,12.3-12.1,24.5-16.9,36.5c-2.5,5.1-4.4,10.7-5.5,16.8c-1.2,6.1-2.5,11.9-4,17.4l-0.3,1.3c-0.2,0.2-0.3,0.4-0.3,0.6v0.6
			l-0.3,1.3V176v0.6v0.9v1.9l-0.3,1.6l-0.6,4.7v1.3v-0.3c-0.4,1.9-0.6,3.7-0.5,5.5c0.1,1.8,0,3.6-0.2,5.5l-0.3,1.6l0.3,0.6l-0.3,0.6
			c0,0.2,0,0.3,0.2,0.3c0.1,0,0.2,0.2,0.2,0.6l-0.3,3.8l0.3,2.8v1.9h0.3h-0.3v1.9l0.3,1.3v1.3c0,1.5,0.2,3,0.5,4.4
			c0.3,1.5,0.6,2.7,0.8,3.8v-0.9l-0.3-0.9l-1.3-1.3v0.3l-0.3-0.6v0.3l-0.3-0.6c-0.4-1.1-0.7-2.2-0.8-3.3c-0.1-1.2-0.3-2.1-0.5-2.7
			l0.3-0.3c-0.4-0.2-0.7-1.2-0.8-3c-0.1-1.8-0.2-3-0.2-3.6v-0.6c-0.2-0.8-0.3-2.1-0.3-3.8v-4.1l0.3,0.6c0-0.4,0-0.6,0.2-0.5
			c0.1,0.1,0.2,0,0.2-0.5c0,0.2-0.1,0.3-0.3,0.3v-0.6c0-0.2-0.1-0.3-0.2-0.3c-0.1,0-0.2-0.1-0.2-0.3V195v-2.8h0.3
			c-0.2-0.2-0.3-0.7-0.3-1.6c0-0.6,0-1.1,0.2-1.4c0.1-0.3,0.4-0.9,0.8-1.7c-0.2-0.2-0.3-0.5-0.3-0.9c-0.4,3.4-0.8,6.6-1.3,9.6
			c-0.4,3.1-0.6,6.1-0.6,9c0,2.5,0.2,5.7,0.6,9.6c0.4,3.9,1.2,7.6,2.4,11.2c1.2,3.6,2.7,6.7,4.7,9.3c2,2.6,4.6,4,7.8,4
			c5.7,0,10.8-2,15.3-5.9c4.5-3.9,8.4-8.3,11.7-13.3c3.3-5,5.9-9.6,7.9-14.1c2-4.4,3.3-7.2,4-8.2c0.2,0,0.4,0,0.6-0.2
			c0.2-0.1,0.5-0.2,0.9-0.2c1.7,0,3.6,0.4,5.9,1.1c2.2,0.7,4.3,1.5,6.3,2.4c2,0.8,4.4,2.1,7.1,3.8c-2.3,4.4-5.3,9-8.9,13.8
			c-3.6,4.7-6.6,9.6-9.2,14.7l-0.3-0.3l-0.3,0.3l0.6-0.9l-1.3,1.3l0.3-0.9L79.7,233.9z M14.2,231.7l-0.9-0.6h0.9h0.9v0.6l0.3,0.3
			v0.9l-0.3-0.3v0.3l-0.6-0.3l-0.6-0.6L14.2,231.7z M13.5,230.7v-0.9l0.3,0.3v-0.6v-0.3l0.6,0.6h-0.3l-0.3,0.3l0.3,0.3v-0.3
			c0.2,0,0.3,0,0.3,0.2c0,0.1,0.1,0.2,0.3,0.2v-0.3l0.3,0.6h-0.3l0.3,0.6V231h-0.9L13.5,230.7z M15.1,236.7l-0.6,0.3l-0.3-0.6
			l0.6-0.3L15.1,236.7z M15.4,232.6V232l0.3,0.6H15.4z M16.7,238l0.3,0.3v-0.6L16.7,238z M17.7,240.5l-0.3-0.3v0.3H17.7z
			 M18.9,243.7v-0.3H18l0.6,0.6L18.9,243.7z M18.9,243.7l-0.3-0.3H18l0.6,0.6L18.9,243.7z M19.6,243.1c-0.2,0-0.3,0.1-0.3,0.3h0.3
			V243.1z M21.1,246.9c0,0.2,0.1,0.3,0.3,0.3v-0.3H21.1z M21.8,246.9h-0.3c0,0.2,0.1,0.3,0.3,0.3V246.9z M23,248.4l-0.3-0.3v0.3H23z
			 M24.6,202.9l-0.3-1.6v0.6c0,0.2,0,0.4,0.2,0.5C24.6,202.5,24.6,202.7,24.6,202.9z M24.6,206.1l-0.3-0.6v0.3L24.6,206.1z
			 M24.6,196.9l0.3,0.3v-0.6L24.6,196.9z M24.9,208.3l-0.3,0.6c0.2,0,0.3-0.1,0.3-0.2c0-0.1,0.1-0.2,0.3-0.2L24.9,208.3z
			 M25.2,197.2h-0.3l0.3,0.3V197.2z M25.6,187.4c-0.2,0.2-0.3,0.4-0.3,0.6c0-0.4,0-0.5,0-0.3C25.2,187.9,25.4,187.8,25.6,187.4z
			 M25.6,197.5l0.3,0.3v-1.6l-0.3,0.3v0.6V197.5z M25.6,196.6l0.3-0.3v1.6l-0.3-0.6v-0.3V196.6z M25.9,184.2l0.3-0.3h-0.3V184.2z
			 M26.5,220.3l0.3,0.9l-0.6-1.3L26.5,220.3z M28.1,222.2l1.3,1.6h-0.6h-0.9l-0.3-0.3l-0.3-0.3l-0.3-0.9l-0.3-1.9v-0.9l0.3,0.9v-0.6
			l1.3,1.3l0.3,0.9L28.1,222.2z M26.8,212.1l0.3,0.6l0.3,0.6h-0.6V212.1z M28.7,223.8l0.3,0.9c0,0.4,0,0.7,0.2,0.9
			c0.1,0.2,0.2,0.4,0.2,0.6H29V226l-0.3-0.6l0.6,1.6c-0.2,0-0.3,0.2-0.3,0.6l-0.6-1.3V226l0.3,0.3V226c0-0.6-0.1-0.9-0.3-0.9
			c0,0.2,0.1,0.4,0.3,0.6l-0.6-0.6v0.3l-0.6-1.3l0.3,0.3v-0.3c-0.2-0.2-0.3-0.4-0.3-0.5c0-0.1-0.1-0.3-0.3-0.5l0.3,0.3l0.3,0.3h0.3
			H28.7z M29,227.6c0.2,0,0.3,0.1,0.3,0.3L29,227.6z M32.2,157.3v-0.9l0.3-1.6l-0.6,1.9l-0.3,1.9L32.2,157.3z M31.6,158.6l0.6-1.6
			l0.3-2.2l-0.6,3.8l-0.3-1.3V158.6z M35.4,255.1h-0.9l-0.9,0.3h0.9L35.4,255.1z M34.4,255.1l-0.9,0.3h0.9l0.9-0.3H34.4z
			 M36.3,254.5H37v0.6l-0.6,0.3l-0.6-0.3l-0.3-0.9h0.9V254.5z M37,254.5h-0.6l-0.9-0.3l0.3,0.9l0.6,0.3v-0.3l0.6-0.3V254.5z
			 M36,254.1l0.3-0.6l0.3-0.3h0.6l0.3,0.6h-0.3l-0.3,0.3H36z M44.5,252.9l-0.3,0.3l-0.9,0.6v-0.6l-0.6,0.3c-0.4,0-0.6,0.2-0.6,0.6
			l0.6,0.6l1.3-0.3l-0.3-0.6l0.3,0.3c0.2,0.2,0.4,0.3,0.6,0.3l0.3-0.6l0.6-0.3l-0.3-0.6H44.5z M45.5,253.2l-0.9-0.3
			c-0.2,0-0.3,0.1-0.3,0.3l-0.9,0.6v-0.6l-0.6,0.3c-0.4,0-0.6,0.2-0.6,0.6l0.6,0.6l1.3-0.3l-0.3-0.6l0.3,0.3l0.6,0.3l0.3-0.6
			l0.6-0.3V253.2z M49.6,252.9v-0.6c-0.4,0.2-1.1,0.3-1.9,0.3l0.6,0.9l1.3,0.3v-0.6V252.9z M49.6,252.6v-0.3
			c-0.4,0.2-1.1,0.3-1.9,0.3l0.6,0.9l1.3,0.3v-0.9V252.6z M55.3,251.6l0.3-0.3V251v-0.3c-0.4,0.2-0.9,0.4-1.6,0.6
			c-0.6,0.2-1.2,0.3-1.6,0.3l-0.6,0.6l-0.3-0.3h-0.3l-0.3,0.3l-0.6,0.6l0.3,0.9l1.6-1.3l-0.3-0.3l0.6,0.3h0.6l0.9-0.6l1.3,0.9
			l-0.3-1.3H55.3z M60.4,249.1v-0.3l-1.3,0.6L60.4,249.1z M59.1,249.4l1.3-0.6L59.1,249.4z M63.2,185.2l-0.3-0.6
			c-0.2-0.2-0.3-0.4-0.3-0.6l-0.3-0.3l0.6,0.6l-0.6-0.9h0.3c0-0.2-0.1-0.3-0.2-0.3c-0.1,0-0.2-0.1-0.2-0.3l0.9,0.6
			c0,0.2-0.1,0.3-0.2,0.2c-0.1-0.1-0.2,0-0.2,0.2l0.3,0.3c0,0.2,0.1,0.3,0.3,0.3l-0.3-0.3l0.6,0.3l-0.3-0.3l0.6,0.6h-0.3l0.3,0.3
			l0.6,0.3l-0.9-0.3L63.2,185.2z M63.8,186.4l0.6,0.3l1.3,0.3l-0.3-0.3l0.6,0.3l-0.3-0.6l-0.6-0.9l-0.3-0.3l-0.9-0.3l-1.3,0.6
			l1.3,0.6V186.4z M62.9,248.1c0-0.2-0.1-0.3-0.3-0.3L62.9,248.1z M65.7,186.4l-0.3-0.6l0.6,0.6H65.7z M67.3,244.6l0.3,0.3l0.3-0.3
			l0.3-0.6H68L67.3,244.6z M68,244.3l-0.3,0.3H68l-0.6,0.3v-0.3L68,244h0.3L68,244.3z M69.2,189.9l-0.3,0.6h0.9l0.6,0.3l-0.3-0.6
			L69.2,189.9z M71.4,240.9c0,0.2-0.1,0.3-0.3,0.3L71.4,240.9z M71.1,241.2l0.3-0.3L71.1,241.2z M71.1,242.1h0.3l-0.3,0.3V242.1z
			 M73,239.6v0.3V239.6c-0.4,0.2-0.8,0.5-1.3,0.9v0.3l0.6,0.3l0.3-0.6l0.3-0.3V239.6z M73,239.6c-0.4,0.2-0.8,0.5-1.3,0.9l0.6,0.3
			v0.3l0.3-0.6l0.3-0.3V239.6v0.3V239.6z M72.7,188.3h-0.3l0.3,0.3V188.3z M74.3,238.6l0.3-0.6l-0.6,0.6H74.3z M76.5,236.1l-0.6,0.6
			l0.3,0.6l0.3-0.3v-0.3h0.9L76.5,236.1z M76.5,236.7v0.3h-0.6v-0.3l0.6-0.6l0.9,0.6H76.5z M79.3,233.3h0.3l-0.6,0.6l-0.3-0.3
			l1.3-1.3l-0.6,0.6V233.3z M79.3,183.9l-0.3,0.3L79.3,183.9z M79,184.9l0.3-0.3H79V184.9z M80,233.9l0.3,0.3l-0.3,0.6h-0.3
			l-0.3-0.3l0.6-1.3V233.9z M80.3,184.5l-0.3-0.3l-0.3,0.6v0.6l0.6-0.6V184.5z M80.3,184.9l-0.6,0.6v-0.6l0.3-0.6l0.3,0.3V184.9z
			 M80.6,231.7c-0.2,0-0.3,0.1-0.3,0.3L80.6,231.7z M80.6,231.7l-0.3,0.3L80.6,231.7z M83.1,180.1l0.3-0.6l-0.3,0.3V180.1z
			 M84.7,177.6l0.3-0.3h-0.3V177.6z M94.5,159.9l-0.6,0.9v1.6l0.3-0.9l0.3-0.6V159.9z M94.5,159.9l-0.3,1.3l-0.3,1.3v-1.6
			L94.5,159.9z M94.8,158.6l0.3-0.9l-0.9,1.9h0.3l0.6-0.9H94.8z M95.2,157.7l-0.9,1.9l0.6-0.9h0.3h-0.3L95.2,157.7z"/>
		<path d="M287.5,237.4c0.4,0.2,0.9,0.5,1.6,0.9c1.3,0.8,1.9,2.2,1.9,4.1c0,6.1-2.3,9.2-7,9.2c-2.3-0.2-6.3-0.9-12-2.2
			c-5.7-1.3-13.8-2.9-24.2-4.9c-10.4-2-23.4-4.4-38.9-7.1c-15.5-2.7-34.2-5.9-56.2-9.5c-1.7,5.1-4,10.6-7,16.6
			c-3,6-6.8,11.5-11.4,16.6c-4.6,5.1-10.2,9.3-16.6,12.8c-6.4,3.5-13.9,5.2-22.3,5.2c-4.4,0-9-0.6-13.8-1.9
			c-4.7-1.3-9.3-3.1-13.6-5.5c-4.3-2.4-8.2-5.4-11.5-9c-3.4-3.6-5.9-7.6-7.6-12c-0.4-0.8-0.6-1.6-0.6-2.2c0-0.6-0.2-1.2-0.6-1.6H48
			c0-0.4,0-0.7-0.2-0.9c-0.1-0.2-0.2-0.5-0.2-0.9v0.3L48,245c-0.2,0-0.3-0.3-0.3-0.9c0-0.6-0.1-1.1-0.3-1.3c0-0.4,0.1-0.8,0.2-1.3
			c0.1-0.4,0.2-0.8,0.2-1.3l0.3-0.3l0.6-2.5c0.4-3.6,1.6-6.4,3.6-8.5c2-2.1,5-4.2,9-6.3l5.1-1.9c0.2,0,0.5-0.1,0.8-0.2
			c0.3-0.1,1.5-0.4,3.6-0.8c0.6-0.4,0.9-0.7,0.9-0.8c0-0.1,0.2-0.2,0.6-0.2h1.3c0.4,0,0.7-0.1,0.8-0.3c0.1-0.2,0.4-0.3,0.8-0.3
			c0.4,0,0.7,0,0.9,0.2c0.2,0.1,0.5,0.2,0.9,0.2c0.4-0.2,0.8-0.4,1.3-0.6c0.4-0.2,0.8-0.4,1.3-0.6l0.6,0.3l0.9-0.6l3.5-0.3
			c0.2,0,0.4,0,0.6,0.2c0.2,0.1,0.4,0.2,0.6,0.2c0.2,0,0.4-0.1,0.5-0.2c0.1-0.1,0.3-0.2,0.5-0.2h1.9l2.5-0.6c0.2,0,0.4,0.1,0.6,0.3
			c0.2,0.2,0.4,0.3,0.6,0.3c0.2,0,0.4-0.1,0.5-0.3c0.1-0.2,0.3-0.3,0.5-0.3l5.4-0.3c2.3-0.2,4.9-0.4,7.6-0.5
			c2.7-0.1,5.6-0.2,8.5-0.2c7.8,0,16.3,0.3,25.6,0.9c1.1-5.1,2.2-10,3.3-14.7c1.2-4.7,2.3-9.5,3.3-14.4l-1.3,1.9
			c-1.1,1.5-2.3,3.3-3.6,5.5c-1.4,2.2-3,4.4-4.9,6.6c-1.9,2.2-4.1,4.1-6.6,5.7s-5.4,2.4-8.5,2.4c-2.3,0-4.2-0.5-5.5-1.6
			c-1.4-1.1-2.5-2.3-3.5-3.6c-0.9-1.4-1.6-2.8-1.9-4.3c-0.3-1.5-0.5-2.6-0.5-3.5c0-8,0.6-15.7,1.9-23.1c1.3-7.4,2.6-14.7,4.1-21.8
			c4-19.4,7.9-33.4,11.5-42.1c3.7-8.6,6.4-13,8.1-13c1.3,0,2.5,0.4,3.8,1.1c1.3,0.7,2.3,1.6,3.2,2.5c0.8,0.9,1.8,2.3,2.8,4
			c0,1.1-0.3,2.5-0.9,4.3c-0.6,1.8-1.5,4.3-2.7,7.4c-1.2,3.2-2.5,7.2-4.1,12.2c-1.6,5-3.3,11-5.2,18.2c-0.8,3-1.9,6.6-3.2,10.9
			c-1.3,4.3-2.5,8.9-3.8,13.6c-1.3,4.7-2.4,9.4-3.3,14.1c-0.9,4.6-1.4,8.8-1.4,12.3c0,1.9,0.5,2.8,1.6,2.8c2.5,0,5.3-1.6,8.2-4.7
			c3-3.2,5.4-5.7,7.3-7.6l1.3-1.3l2.2-2.5l0.9-0.6l0.9-1.6c0-0.2,0.2-0.5,0.6-0.9l0.9-1.3l0.3,0.3l0.3-0.9c0.6-0.8,1.3-1.7,1.9-2.7
			c0.6-0.9,1.2-1.7,1.6-2.4l-0.3,0.3l-0.3,0.6l0.3,0.9l0.9-1.3v-0.9v-0.9c0.2,0,0.7-1.6,1.4-4.9c0.7-3.3,1.5-7,2.4-11.1
			c0.8-4.1,1.7-8.2,2.7-12.2c0.9-4,1.6-6.7,2.1-8.2c1.5-7.2,2.7-13,3.6-17.4c0.9-4.4,1.8-7.9,2.5-10.4c0.7-2.5,1.6-4.2,2.7-5.1
			c1.1-0.8,2.4-1.3,4.1-1.3c2.1,0,4.6,0.7,7.4,2.1c2.8,1.4,4.3,2.9,4.3,4.6c0,1.1-0.2,2.1-0.6,3c-0.4,0.9-1,2.4-1.7,4.3
			c-0.7,1.9-1.7,4.7-3,8.4c-1.3,3.7-2.8,8.7-4.7,15c-1.5,6.3-3.2,14-5.2,23.1c-2,9.1-4.5,20.1-7.4,33.2c0,0.4,0.2,0.6,0.6,0.6
			c0.6,0,1.8-1.2,3.5-3.5c1.7-2.3,4-6.2,7-11.7l0.6-1.6l0.3-0.9l0.3-0.3H173c0-0.2,0-0.3,0.2-0.3c0.1,0,0.2-0.1,0.2-0.3l1.3-1.9
			l0.6-1.6c0.2-0.2,0.3-0.4,0.3-0.5c0-0.1,0.1-0.3,0.3-0.5l0.6-1.3l0.6-0.6h-0.3c0.8-1.7,1.9-3.4,3.2-5.1l-0.3,0.3l-0.3,0.6l0.3,1.3
			v-0.3h0.3l0.3-0.3l0.6-1.3l-0.3-0.6l-0.3-0.9l0.6-0.6v0.6l0.3-0.6v0.3l0.3-0.6v0.3l0.3-0.3v0.9h-0.3V164c-0.4,0-0.6,0.2-0.6,0.6
			c0,0.2,0.1,0.3,0.3,0.3v-0.6c-0.2,0-0.1,0.2,0.3,0.6l-0.3,0.6l0.6-1.3l0.9-1.6c0.6-1.1,1.3-1.6,1.9-1.6v-0.6h0.3
			c0.4,0,0.8,0.1,1.3,0.3c0.4,0.2,0.6,0.5,0.6,0.9c0,0.2-0.2,0.4-0.5,0.6c-0.3,0.2-0.6,0.5-0.8,0.9v0.6c0,0.2,0.1,0.3,0.3,0.3
			c0,0.2-0.2,0.3-0.5,0.3s-0.5,0.2-0.5,0.6c0,0.2,0.1,0.4,0.3,0.6c0,0.4-0.2,0.7-0.6,0.8c-0.4,0.1-0.6,0.4-0.6,0.8
			c0,0.2,0,0.4,0.2,0.6c0.1,0.2,0.2,0.4,0.2,0.6h-0.6l0.3,0.9l-0.9,1.9c0,0.2-0.1,0.3-0.3,0.3c-0.2,0-0.3,0.1-0.3,0.3v0.6l-0.6,1.3
			l-0.3,1.6c0,0.2-0.1,0.3-0.3,0.2c-0.2-0.1-0.3,0.1-0.3,0.5v0.3v0.3l-1.3,3.2c-0.6,1.3-1.4,3.4-2.4,6.3c-0.9,3-2.2,6-3.8,9.2
			c-1.6,3.2-3.5,5.9-5.9,8.2c-2.3,2.3-5.1,3.5-8.2,3.5h-1.3c-0.4,1.5-0.8,3-1.1,4.6c-0.3,1.6-0.7,3.2-1.1,4.9
			c14.6,1.3,29.3,2.8,44.3,4.7c15,1.9,28.7,3.9,41.1,6c12.4,2.1,22.9,4.1,31.3,5.9C281.1,235.2,286,236.5,287.5,237.4z M89.8,265.5
			c1.1,0.4,2.2,0.6,3.3,0.6c1.2,0,2.3,0,3.3,0c5.1,0,9.8-1.1,14.1-3.3c4.3-2.2,8.3-5.1,12-8.7c3.7-3.6,6.9-7.8,9.5-12.7
			c2.6-4.9,4.7-9.9,6.2-15.2c-3.4-0.4-6.8-0.6-10.1-0.5c-3.4,0.1-6.9-0.1-10.4-0.5l-1.3-0.3h-0.9h-1.3c0,0.2-0.2,0.3-0.6,0.2
			c-0.4-0.1-0.6-0.1-0.6,0.2H111H110h-4.7H104h0.3c-1.7,0.2-3.4,0.4-5.1,0.5c-1.7,0.1-3.4,0.2-5.1,0.2h-0.6l-1.6,0.3l-0.6-0.3
			c0,0.2-0.2,0.3-0.6,0.3l-3.5,0.3l-2.8,0.3h-1.9l-1.6,0.3v-0.3l-1.3,0.3c-2.5,0.2-5.1,0.7-7.6,1.6l0.6-0.3l1.3-1.3h-0.3l0.6-0.3H74
			l0.6-0.3c0.4-0.4,1.2-0.7,2.4-0.9c1.2-0.2,2.2-0.3,3-0.3h0.3c0.4-0.4,1.4-0.7,2.8-0.8c1.5-0.1,2.4-0.2,2.8-0.2h0.6
			c1.3-0.4,2.5-0.7,3.6-0.8c1.2-0.1,2.4-0.3,3.6-0.5l-0.3,0.3c0.2,0,0.3,0,0.3,0.2c0,0.1,0.1,0.2,0.3,0.2c0-0.4,0.8-0.7,2.5-0.8
			c1.7-0.1,2.7-0.2,3.2-0.2h2.5h0.9c0.4-0.2,0.9-0.3,1.6-0.3c-0.8,0-1.5-0.1-1.9-0.3H98l-3.2-0.6l-2.2,0.3c-0.2,0-0.4,0-0.6,0.2
			c-0.2,0.1-0.5,0.2-0.9,0.2l-0.9-0.3l-6,1.3c-0.4,0-0.7-0.1-0.9-0.2c-0.2-0.1-0.5-0.2-0.9-0.2c-0.4,0-0.7,0.1-0.8,0.3
			c-0.1,0.2-0.3,0.3-0.5,0.3l-2.5,0.3l-3.5,0.9c-0.2,0-0.4-0.1-0.6-0.2c-0.2-0.1-0.5-0.2-0.9-0.2l-0.9,0.9l-1.9,0.6
			c-4.8,1.1-8.4,2.6-10.6,4.7c-2.2,2.1-3.3,4.4-3.3,7s0.9,5.3,2.7,8.4c1.8,3.1,4.2,5.9,7.1,8.5c3,2.6,6.5,5,10.6,7
			C81.1,263.6,85.4,264.9,89.8,265.5z M65.7,268.4l-1.9-1.6l-2.5-1.3l1.9,1.3l0.6,0.6L65.7,268.4z M69.8,269.6l-1.6-0.9l-1.9-0.9
			v0.6l1.6,0.9l-0.3,0.3l1.9,0.6L69.8,269.6z M70.8,269.6c-0.4-0.4-0.8-0.7-1.3-0.8c-0.4-0.1-0.8-0.4-1.3-0.8h-0.6l3.2,1.9V269.6z
			 M87.6,276.6v-0.3c-0.6-0.2-1.3-0.4-2.1-0.5c-0.7-0.1-1.4-0.3-2.1-0.5h0.3l1.6,0.6L87.6,276.6z M84.1,225c0-0.2-0.1-0.3-0.3-0.3
			L84.1,225z M86.9,224.4h-0.6h0.3H86.9z M88.5,224.7l-0.6,0.3h0.6V224.7z M91,276.9c-0.4,0-0.8-0.1-1.1-0.2
			c-0.3-0.1-0.7-0.2-1.1-0.2c0.2,0,0.4,0,0.5,0.2c0.1,0.1,0.4,0.2,0.8,0.2H91z M89.1,224.4c1.1,0,1.6-0.2,1.6-0.6L89.1,224.4z
			 M93.9,225h1.6l-0.3-0.3h-0.6L93.9,225z M94.5,224.4v-0.3l-0.3,0.3H94.5z M94.5,224.1l0.6-0.3h-0.6V224.1z M102.8,223.8v0.3
			c0.2,0,0.4-0.1,0.5-0.2c0.1-0.1,0.3-0.2,0.5-0.2H102.8z M106.5,223.5v0.3c0.2,0,0.3-0.1,0.3-0.3H106.5z"/>
		<path d="M232.8,173.8c0.4,0,0.8,0.1,1.3,0.3c0.4,0.2,0.6,0.5,0.6,0.9c0,0.2-0.1,0.4-0.3,0.5c-0.2,0.1-0.4,0.4-0.6,0.8
			c0,0.2,0,0.4,0.2,0.5c0.1,0.1,0.2,0.3,0.2,0.5l-0.6,0.3v0.6c0,0.2-0.2,0.4-0.5,0.5c-0.3,0.1-0.5,0.4-0.5,0.8c0,0.2,0,0.4,0.2,0.5
			c0.1,0.1,0.2,0.3,0.2,0.5h-0.6l0.3,0.6l-0.6,1.6c0,0.2-0.1,0.3-0.3,0.3h-0.3c0,0.2,0,0.4,0.2,0.5c0.1,0.1,0.2,0.3,0.2,0.5
			l-0.6,0.6l-0.3,1.3c0,0.2-0.1,0.3-0.3,0.3h-0.3c0,0.2,0.1,0.4,0.3,0.6l-0.9,2.8c-0.8,1.7-1.6,3.5-2.4,5.4c-0.7,1.9-1.6,4-2.7,6.3
			c-0.4,0.6-0.8,1.6-1.3,2.8c-0.4,1.3-1.1,2.6-1.9,4c-0.8,1.4-2,2.5-3.3,3.5c-1.4,0.9-3.2,1.4-5.5,1.4c-3.2,0-5.4-1-6.8-3
			c-1.4-2-2.3-4.3-2.7-6.8c-0.4-2.5-0.5-5-0.3-7.3c0.2-2.3,0.3-3.8,0.3-4.4c0-5.1,0.3-10.2,0.8-15.5c0.5-5.3,1.3-10.3,2.2-15.2
			c0.9-4.8,1.9-9.3,3-13.4c1.1-4.1,2.1-7.5,3.2-10.3c-2.3-1.1-5-3-7.9-5.7c-2.7,8.2-5,15.1-6.6,20.7c-1.7,5.6-3.7,11.5-6,17.9
			l-0.3,0.3l-0.3,0.3h0.3l-0.3,0.3v0.3v0.3l-0.3,0.9h0.3l-0.3,0.3l-0.3,1.9c-0.4,1.3-0.8,2.4-1.3,3.5v0.6l-0.3,0.3l0.3,0.3h-0.3
			l-0.6,1.3l-0.6,1.3h0.3l-0.6,0.6l-0.3,0.3c-0.2,0.4-0.4,0.9-0.6,1.4c-0.2,0.5-0.4,1-0.6,1.4H185h0.3v-0.6l-0.6-0.9l-0.3,0.3
			l0.3-0.3c0-0.2,0-0.3-0.2-0.3c-0.1,0-0.2-0.1-0.2-0.3l0.9-1.3L185,182c0-0.4,0-0.7-0.2-0.8c-0.1-0.1,0.4-1.4,1.4-4l0.3,0.3
			c0-0.2,0.1-0.3,0.2-0.2c0.1,0.1,0.2,0.1,0.2-0.2h-0.3v-0.6l-0.6,1.6h-0.6v0.9l-0.6,1.3l-0.9,1.6l-0.6,1.3l-0.3,0.6l-0.6,1.3
			l-0.6,0.9c-0.2,0.4-0.4,0.7-0.6,0.9l-0.3,0.3h0.3l-0.3,0.3l-0.3,0.3c-0.8,0-1.3-0.3-1.3-0.9l0.6-1.3l-0.3-0.6l0.6-0.3l-0.3-0.6
			l0.6-0.6v-1.3l0.3-1.6l0.3-0.9l0.3-1.3l0.6-0.6l-0.3-0.3l0.6-2.2c1.1-3.4,2.2-7.4,3.5-12.2c1.3-4.7,2.5-9.6,3.8-14.7
			c1.3-5.1,2.4-10.1,3.3-15c0.9-5,1.7-9.4,2.4-13.4c-1.9-3.6-3.2-7-3.8-10.3c-0.6-3.3-0.9-6.1-0.9-8.4c0-2.5,0-4.2,0-5.1
			c0-0.8,1.4-1.3,4.1-1.3c4.8,0,8.4,0.2,10.6,0.6c2.2,0.4,3.7,1.2,4.4,2.2c0.7,1.1,1.1,2.4,0.9,4.1c-0.1,1.7-0.1,3.8,0.2,6.3
			c0.2,2.5,0.9,5.5,2.1,9c1.2,3.5,3.3,7.4,6.5,11.9c1.5,0.4,2.7,1.1,3.8,2.1c1.1,0.9,1.9,1.9,2.7,2.8c0.7,0.9,1.5,2.1,2.4,3.3
			c0,0.6-0.2,1.4-0.6,2.2v0.3v0.3v-0.3v0.3c0,0.2,0.1,0.3,0.3,0.3l-0.6,0.3l0.3-0.3c0-0.2-0.1-0.3-0.3-0.3c0,1.7-0.8,4.5-2.5,8.5
			c-1.7,4-3.2,9.9-4.4,17.7c-0.6,4.2-1.7,9.3-3.2,15.3c-1.5,6-2.2,11.9-2.2,17.6c1.3-1.7,2.5-3.4,3.6-5.2c1.2-1.8,2.3-3.5,3.3-5.2
			l0.3-0.6l0.3-0.6v-0.3l0.3-0.3l0.9-1.6l0.9-1.9h-0.3l0.6-0.6l0.6-0.6c0.4-0.6,0.8-1.4,1.1-2.2c0.3-0.8,0.7-1.5,1.1-1.9v0.3
			l-0.3,0.6l0.3,0.9l0.6-1.3h0.6l-0.3-0.3l-0.6-0.6l0.3-0.3c0.2-0.4,0.4-0.6,0.6-0.6l-0.3,0.3h0.6v-0.6v0.3l0.3-0.3v0.9
			c-0.2,0-0.3,0-0.2-0.2c0.1-0.1,0-0.2-0.2-0.2c-0.2,0-0.4,0.1-0.6,0.3c0,0.2,0.1,0.3,0.3,0.3v-0.3c0.2,0,0.3,0.1,0.3,0.3l0.6-1.3
			l0.9-1.3l0.9-0.9c0.2-0.2,0.4-0.3,0.6-0.3h-0.3l0.3-0.3H232.8z M185.3,181.1h0.3h0.3H185.3z M188.2,177.3h-0.3l0.3,0.6v-0.3V177.3
			z M188.5,174.7l-0.3-0.3v0.3H188.5z M192.9,165.2l0.3-0.6L192.9,165.2z"/>
		<path d="M236.2,199.4c-0.4-2.1-0.7-4-0.8-5.5c-0.1-1.6-0.2-3.2-0.2-4.9c-0.2-6.3,0.2-12.5,1.3-18.7c1.1-6.1,2.1-12,3.2-17.7
			c3-16.2,6-28.1,9-35.6c3.1-7.5,5.4-11.2,7.1-11.2c1.5,0,2.8,0.4,4,1.3c1.2,0.8,2.2,1.7,3.2,2.7c0.9,0.9,1.9,2.3,3,4
			c0,1.7-1,5-3,9.8c-2,4.9-4.4,13.1-7.1,24.7c-0.6,3-1.5,6.4-2.7,10.3c-1.2,3.9-2.3,8-3.5,12.2c-1.2,4.2-2.1,8.5-2.8,12.8
			c-0.7,4.3-1.1,8.3-1.1,11.9c0,0.4,0,0.8,0.2,1.3c0.1,0.4,0.2,0.8,0.2,1.3c0.6-0.6,2.2-1.8,4.6-3.5c2.4-1.7,4.1-3.3,4.9-4.7
			l2.2-2.2l1.6-0.9l0.6-1.3l0.6-0.6l0.3-0.3l1.3-1.3h-0.3c1.1-1.1,2.2-2.4,3.5-4.1l-0.3,0.6l-0.3,0.6l0.6-0.3l0.6-0.9v-0.6
			c0-0.2,0.1-0.4,0.3-0.6h0.3l-0.3,0.3l0.3-0.3l0.3-0.3v0.3l0.3-0.6v0.3l0.9-0.9c0.2-0.4,0.4-0.7,0.6-0.8c0.2-0.1,0.4-0.3,0.6-0.5
			c0.2-0.2,0.4-0.3,0.6-0.3h-0.3l0.3-0.3h0.3c0.4,0,0.8,0.1,1.3,0.3c0.4,0.2,0.6,0.5,0.6,0.9c0,0.2-0.3,0.5-0.8,0.8
			c-0.5,0.3-0.8,0.7-0.8,1.1c0,0.2,0.1,0.4,0.3,0.6c0-0.2-0.3,0-0.9,0.6v0.6c0-0.4,0-0.3,0,0.3c0,0.6-0.4,1.4-1.3,2.2l-0.3,0.9
			l-1.9,1.9l-0.6,1.6L265,188c0,0.2-0.1,0.3-0.3,0.2c-0.2-0.1-0.3,0-0.3,0.2v0.6l-1.9,2.8c-0.6,1.1-1.5,2.4-2.5,4
			c-1.1,1.6-2.3,3.2-3.8,4.7c-1.5,1.6-3.1,3-4.9,4.3c-1.8,1.3-3.9,2-6.2,2.2c-1.5,0-3-0.5-4.6-1.4c-1.6-0.9-2.6-2-3-3L236.2,199.4z
			 M256.8,88.1l0.3-1.6c0-0.2,0-0.4,0.2-0.5c0.1-0.1,0.2-0.3,0.2-0.5v-0.6c0-0.2,0-0.4,0.2-0.6c0.1-0.2,0.2-0.5,0.2-0.9l0.6,0.6v0.6
			v1.3h-0.6l0.3,0.3c0,0.4,0.1,0.6,0.3,0.6l0.9,0.3l-0.6-1.6l-0.3,0.3l0.6-0.6l0.3-0.3v-0.6c0-0.6,0.1-1.1,0.3-1.3l-0.3-0.3h-0.6
			c0,0.2-0.1,0.3-0.3,0.3v0.3l0.3-0.9l-0.3-1.3l0.6-3.5c0.2-0.2,0.4-0.3,0.6-0.3V77l0.3-0.6l0.6-1.6c0-1.9,0.5-3.7,1.6-5.5
			c1.1-1.8,2.2-3.4,3.5-4.9c1.3-1.5,2.5-2.6,3.8-3.5c1.3-0.8,2.1-1.3,2.5-1.3c1.7,0,2.9,0.8,3.6,2.4c0.7,1.6,1.3,3.6,1.7,6.2v0.3
			l0.6,0.9l-0.6-0.6v1.6l0.9,0.6l-0.3,2.8l0.3,0.3l-0.3-0.3v0.3c0.2,0,0.3,0.1,0.3,0.3L278,76v1.3l-0.3,1.9
			c-0.4,0.8-0.8,1.7-1.1,2.7c-0.3,0.9-0.6,1.6-0.8,2.1v-0.6v-0.6l-0.3-0.9l-0.9,2.8l0.6-0.3v0.6v0.3v0.3l-0.3-0.3v0.3l0.3,0.3v-0.3
			v0.6h-0.3c0.2,0,0.3,0.1,0.3,0.3l-0.3-0.3l-0.6-0.3c-0.2,0.2-0.3,0.4-0.3,0.5c0,0.1-0.1,0.3-0.3,0.5l0.6,0.6l0.3,0.6l-0.3-0.3
			c0.2,0.2,0.3,0.5,0.3,0.9l-0.9,1.3v0.3l-0.6,1.9c-0.2,0.4-0.4,0.9-0.6,1.6c-0.2,0.6-0.4,1.1-0.6,1.3l-0.3-0.3V95H271
			c0.2,0,0.3,0.2,0.3,0.6c-0.4,0.4-0.6,0.8-0.6,1.3c0,0.4-0.3,0.8-0.9,1.3h-0.3l-1.3,1.6c-0.6,1.3-1.6,2-2.8,2.2H265
			c-0.8,0.4-1.5,0.6-1.9,0.6c-0.8,0-1.6-0.3-2.2-0.9l0.3-0.3l-0.3-0.3c-0.2,0-0.3,0.1-0.3,0.3c-0.4-1.1-0.8-1.7-1.3-1.9
			c-0.4-0.2-0.7-0.5-0.9-0.9h0.3l-0.3-0.6h0.6l-0.3-0.9l-0.3-0.3l-0.3,0.6c-0.4-0.8-0.6-1.4-0.6-1.6l-0.3-1.6c0-0.2-0.1-0.4-0.2-0.5
			c-0.1-0.1-0.2-0.4-0.2-0.8c0-0.4,0-0.7,0.2-0.9c0.1-0.2,0.2-0.5,0.2-0.9l-0.3-2.2l1.6-0.3l0.3-0.9h-0.6l-0.9-0.3v0.9H256.8z
			 M258.4,92.5l0.3-0.6l-0.6,0.3v-0.3c0.4,0,0.6-0.2,0.6-0.6h-0.6v-0.3l-0.3-0.3l-0.6,0.6v0.3l0.6,0.6l-0.6,0.3l0.3,0.3
			c0,0.4,0.1,0.6,0.3,0.6l0.6-0.6V92.5z M260,79.8v-0.9l-0.9-0.3l0.3,1.9L260,79.8z M259,96.9l0.3,1.3l0.9-0.6l-0.3-0.3h0.3
			l-0.3-0.6l-0.3,0.3H259z M260.3,97.9v0.6l0.6,0.3v-0.6L260.3,97.9z M266.9,177.6l-0.6,0.6l0.3,0.3v-0.3h0.3v-0.3V177.6z
			 M269.8,94.7l0.3,0.3v-0.3l0.3-0.3l-0.3-0.3l-0.3,0.3V94.7z M272.6,92.5h0.3l-0.3-0.3V92.5z M273.3,91.5c-0.2,0-0.3-0.1-0.3-0.3
			L273.3,91.5z M276.4,78.6h0.6l-0.6-0.6V78.6z M276.7,77.3l0.6,0.3l-0.6-1.3V77.3z M277.1,73.5l0.3-0.3h-0.3V73.5z M277.7,76
			c0.2,0,0.3-0.1,0.3-0.3c-0.2,0-0.3,0.1-0.2,0.2C277.9,76,277.9,76,277.7,76z M278.3,72.2l-0.3,0.3C278,72.3,278.1,72.2,278.3,72.2
			z"/>
		<path d="M272,201.6c-0.8-3-1.4-5.7-1.6-8.4c-0.2-2.6-0.3-5-0.3-7.1c0-4.2,0.7-12.4,2.1-24.5c1.4-12.1,5.2-28.8,11.5-50.1
			c2.5-9.3,5.1-18,7.6-26.3c2.5-8.2,4.8-15.5,6.8-21.8c2-6.3,3.7-11.5,5.1-15.5c1.4-4,2.3-6.5,2.7-7.6c0.2-0.4,0.5-0.9,0.9-1.6
			c0.4-0.4,0.9-0.8,1.4-1.1c0.5-0.3,1.3-0.5,2.4-0.5c3.4,0,5.7,0.7,7.1,2.2c1.4,1.5,2.1,2.7,2.1,3.8c0,1.3-0.6,3.9-1.9,7.9
			c0,0.4-0.7,3-2.1,7.6c-1.4,4.6-3,9.9-4.7,15.8c-1.8,5.9-3.6,11.7-5.5,17.4c-1.9,5.7-3.3,9.8-4.1,12.3
			c-4.2,16.4-7.9,31.3-10.9,44.6c-3.1,13.3-4.8,23.5-5.2,30.7c0-0.2-0.1,0.3-0.2,1.6c-0.1,1.3-0.2,3-0.2,5.1c0,2.1,0.1,4.5,0.3,7.1
			c0.2,2.6,0.6,5.1,1.3,7.4c0.4,1.1,0.1,1.6-0.9,1.6c1.7,0,3.7-1.2,6-3.6c2.3-2.4,4.4-4.5,6.3-6.2l0.6-0.6l0.9-0.9h0.6l0.6-0.9
			l0.9-0.9l0.3-0.6l0.6,0.3l0.3-0.6l0.3-0.6h0.9v-0.6l0.6-0.6c0.2,0,0.4,0,0.5-0.2c0.1-0.1,0.3-0.2,0.5-0.2h0.3l-0.3-0.3h0.3
			c0.4,0,0.9,0.2,1.4,0.5c0.5,0.3,0.8,0.7,0.8,1.1c0,0.2-0.1,0.3-0.3,0.3c-0.2,0-0.4,0.1-0.6,0.3l0.3,0.6h-0.6l0.3,0.6
			c0,0.2-0.1,0.3-0.3,0.2c-0.2-0.1-0.3,0-0.3,0.2v0.6v0.3h-0.3l0.3,0.3l-0.9,0.9l-0.3,0.6l-0.3,0.9h-0.3l0.3,0.3l-0.9,1.6
			c-0.4,0.6-1.1,2-1.9,4.1c-0.8,2.1-2,4.3-3.3,6.5c-1.4,2.2-3.2,4.2-5.4,6c-2.2,1.8-4.9,2.7-8.1,2.7c-2.5,0-4.6-0.5-6.2-1.6
			c-1.6-1.1-2.9-2.3-4-3.6c-1.1-1.4-1.8-2.7-2.4-4.1C272.6,203.6,272.2,202.5,272,201.6z"/>
		<path d="M513.7,65c15.6,0,30.2,0.2,43.7,0.5c13.5,0.3,25.6,0.5,36.4,0.5h0.6H594h1.6h1.3c0.2,0,0.3,0,0.3-0.2
			c0-0.1,0.2-0.2,0.6-0.2l4.4,0.6h3.2c0.8,0,1.6,0.1,2.2,0.3v-0.3c0.2,0,0.3,0.1,0.3,0.3l2.2,0.3h1.6c1.7,0.2,3.5,0.4,5.5,0.6
			c2,0.2,3.6,0.5,4.9,0.9l-0.9-0.3h-0.9l-1.3,0.3c2.1,0.4,3.5,0.6,4.1,0.6l1.6-0.3c0.2,0.2,0.6,0.3,1.3,0.3c0.2,0,0.3,0.1,0.3,0.3
			H625h1.3l-0.3,0.3h0.9V70h0.6l-1.6,0.3c0.6,0,0.9,0.4,0.9,1.3c0,0.6-0.1,1.1-0.3,1.3c-0.2,0.2-0.4,0.4-0.6,0.6
			c-0.4,0.2-0.7,0.3-0.9,0.3c-1.1-0.4-3-0.7-5.7-0.9c-2.7-0.2-6.2-0.3-10.4-0.3c-10.8,0-24.9,0.5-42.5,1.4
			c-17.6,0.9-36.6,2.1-57.1,3.3c-3,9.3-5.5,19.3-7.6,30.1c-2.1,10.8-4.3,21.8-6.6,33.1c-2.3,11.3-5,22.6-7.9,34
			c-3,11.4-6.6,22.4-11.1,32.9l-0.6,1.3v-0.3c0,0.2-0.1,0.4-0.3,0.6l0.3-0.3l-0.3,1.9l-1.3,1.9h-0.3v0.3h0.3l-0.3,0.3l-0.3,0.3h0.3
			l-0.6,0.9l-0.3,1.3l-0.6,1.3c-0.6,1.3-1.3,2.7-1.9,4.3c-0.6,1.6-0.9,2.9-0.9,4c-2.3,4.4-4.9,9-7.6,13.6c-2.7,4.6-5.9,8.9-9.3,12.8
			c-3.5,3.9-7.4,7.2-11.7,9.8c-4.3,2.6-9.2,4.3-14.7,4.9c-1.1,0-1.7,0.1-1.9,0.3h-1.3h-0.6v-0.3l-1.6,0.3v-0.3
			c0,0.2-0.3,0.3-0.9,0.3c-0.6,0-1.1,0.1-1.3,0.3h-2.5h-2.2c-1.1-0.2-2.2-0.4-3.3-0.6c-1.2-0.2-2.3-0.4-3.3-0.6l-0.3-0.3l-0.9,0.3
			c-2.5-0.4-5-1.2-7.3-2.2c-2.3-1.1-4.6-2.1-7-3.2l-0.6-0.6l-2.2-1.3h0.3l-0.6-0.6h-0.3c-0.4,0-0.7-0.1-0.9-0.3l-4.1-3.5l-2.8-2.8
			c-0.6-0.6-1.2-1.3-1.6-1.9H378v-0.3l-1.6-2.2l-1.3-1.3c-1.1-2.1-2.1-4.2-3.2-6.3c-1.1-2.1-1.7-4-1.9-5.7l0.3,0.6l0.3,0.9l0.3,1.3
			l1.3,1.3v-0.3l0.6,0.6l-0.3-0.3l0.6,0.9c0.6,0.8,1.4,1.9,2.2,3.3c0.8,1.4,1.5,2.5,1.9,3.3v0.3c0.4,0.2,0.9,0.6,1.6,1.1
			c0.6,0.5,1.2,1,1.6,1.4c2.5,3.2,4.6,5.2,6.2,6c1.6,0.8,3.5,2.1,5.9,3.8h-0.6c0.4,0,0.6,0,0.5,0.2c-0.1,0.1,0,0.3,0.5,0.5h-0.3
			l0.3-0.3c0,0.2,0.1,0.3,0.3,0.3h0.9h0.3c0.6,0.4,1.4,0.8,2.4,1.1c0.9,0.3,1.7,0.6,2.4,0.8v0.3c0.8,0,1.8,0.4,2.8,1.1
			c1.1,0.7,2,1.1,2.8,1.1h0.9c1.5,0,3.5,0.3,6,0.9c1.9,0,3.8,0,5.9,0c2,0,4.1-0.1,6.2-0.3l0.3,0.3c1.7-1.1,3.7-1.7,6-1.9
			c2.3-0.2,4.1-0.9,5.4-2.2v0.6c1.1-0.4,1.6-0.8,1.6-1.3c2.7-0.6,6.1-3,10.1-7l-0.3,0.9l2.2-1.9V250l0.6-0.6l-0.6,0.6v-0.3
			c1.3-1.7,2.3-2.8,3.2-3.5H452c0-0.4,0.5-1.2,1.6-2.4c1.1-1.2,1.8-2.1,2.2-2.7c0.2,0,0.2,0.1,0,0.3c0.4,0,0.5-0.1,0.3-0.3
			c-0.2-0.2,0.1-0.7,0.9-1.6c-5.3,5.9-10.9,10.5-16.8,13.8c-5.9,3.3-12.2,4.9-19,4.9c-7.8,0-14.7-1.7-20.6-5.1
			c-5.9-3.4-10.9-7.3-15-11.7c-4.1-4.4-7.4-8.8-10-13.1c-2.5-4.3-4.2-7.3-5.1-9c-3-5.3-5.1-11-6.3-17.1c-1.3-6.1-1.9-12.4-1.9-19
			c0-8.2,1.3-17.7,4-28.5c2.6-10.8,6.6-20.9,12-30.4c5.4-9.5,12.3-17.5,20.7-24c8.4-6.5,18.6-9.8,30.4-9.8c8,0,14.7,1.7,20.1,5.1
			c5.4,3.4,9.6,7.4,12.8,12.2c3.2,4.7,5.4,9.6,6.6,14.6c1.3,5,1.9,8.9,1.9,11.9c0,6.3-0.7,11-2.2,13.9c-1.5,3-3.1,4.4-4.7,4.4
			c-1.9,0-3.9-0.5-5.9-1.6c-2-1.1-3.9-2.2-5.7-3.3c-1.8-1.2-3.7-2.7-5.9-4.6c1.9-2.1,2.8-5.5,2.8-10.1c0-2.7-0.4-5.6-1.3-8.5
			c-0.8-3-2.2-5.6-4-8.1c-1.8-2.4-4-4.4-6.6-6c-2.6-1.6-5.7-2.4-9.3-2.4c-2.3,0-4.5,0.3-6.6,0.9h3.5l1.9,0.3h-0.3h0.6h0.3h0.6
			l0.3,0.3c0.8,0,1.8,0.3,2.8,0.9h0.3l2.5,0.9l1.3,0.6l3.2,1.9c1.7,1.3,3.2,3,4.4,5.1c1.3,2.1,2,3.6,2.2,4.4l-0.3-0.3l-0.6-0.9
			l-0.6-0.9l-0.6-0.3l-1.9-1.6l0.9,0.3l-0.9-0.9c-0.2,0-0.9-0.4-2.1-1.3c-1.2-0.8-2.1-1.7-2.7-2.5l0.3-0.9l-1.6-0.3L434,114
			c-0.4-0.4-0.8-0.6-1.1-0.6c-0.3,0-0.7-0.1-1.1-0.3l-0.3-0.3h0.6c0.2,0.2,0.5,0.3,0.9,0.3l2.2-0.6l-2.8-0.6h-1.6l0.3,0.3l-0.9-0.3
			c-0.4,0-0.8,0.1-1.3,0.3h-1.3l0.3-0.6l0.3-0.6l-1.3-0.3l-2.2-0.9v1.6l0.6,0.3l0.3,0.3l-1.3-0.3h0.6c-0.4,0-0.6,0-0.5-0.2
			c0.1-0.1-0.1-0.2-0.5-0.2l0.3,0.3h-0.3c-0.2,0-0.4,0.1-0.6,0.3h-1.3c-1.1,0-1.8,0.1-2.2,0.3h-2.8h0.6l0.3,0.3c0.2,0,0.3,0,0.3-0.2
			c0-0.1,0.1-0.2,0.3-0.2h0.6v-0.3l0.9-0.6l-0.3-0.3h-0.9h-0.6v0.3l-1.6,0.6h-1.6l1.3-0.9h0.6l1.3-0.9c-0.6,0.2-1.2,0.4-1.7,0.6
			c-0.5,0.2-1.1,0.4-1.7,0.6l-0.6,1.6h0.6l0.6,0.3l-0.9,0.3c-1.7,0.8-3.2,1.6-4.6,2.2c-1.4,0.6-2.9,1.5-4.6,2.5l-0.3-0.3
			c-2.1,1.7-4.2,3.3-6.3,4.7v-0.3l-0.6,0.6c-0.2,0.2-0.3,0.4-0.3,0.6h0.3c-1.1,0.4-1.7,1-2.1,1.7c-0.3,0.7-0.7,1.1-1.1,1.1
			c-3.8,4.2-7.1,9-10,14.2c-2.8,5.3-5.2,10.7-7.1,16.3c-1.9,5.6-3.3,11.1-4.3,16.6c-0.9,5.5-1.4,10.5-1.4,15.2
			c0,12.7,2.6,23.6,7.9,32.9c1.1,1.9,2.2,3.8,3.5,5.7c1.1,1.7,2.4,3.5,4,5.5c1.6,2,3.4,4.1,5.5,6.2l0.3,0.3l0.3,0.3
			c0.4,0.4,0.7,0.6,0.9,0.6l1.3,1.3l0.9,0.6v-0.3c2.1,1.7,4.3,3.2,6.6,4.4l-0.6-0.3l-0.6-0.3h-0.6c0.4,0.4,0.8,0.7,1.3,0.8
			c0.4,0.1,0.8,0.4,1.3,0.8h0.9c2.3,1.1,4.6,1.9,6.8,2.7c2.2,0.7,4.6,1.1,7.1,1.1c5.3,0,10.3-1.6,15.2-4.7
			c4.8-3.2,9.3-7.4,13.4-12.8c4.1-5.4,7.8-11.5,11.1-18.5c3.3-7,6-14.2,8.1-21.8c3.4-9.9,6-19.9,7.8-29.9c1.8-10,3.3-19.9,4.6-29.7
			c1.3-9.8,2.5-19.4,3.6-28.8c1.2-9.4,2.9-18.2,5.2-26.4c-13.1,0.6-26,0.9-38.9,0.9c-7.8,0-15.5-0.2-22.9-0.5
			c-7.5-0.3-14.6-1-21.4-2.1c-3.8-0.6-8.1-1.4-13-2.4c-4.9-0.9-9.4-2.5-13.8-4.6c-4.3-2.1-8-5-11.1-8.5c-3.1-3.6-4.6-8.1-4.6-13.6
			c0-3.6,0.4-6.4,1.1-8.5c0.7-2.1,1.6-3.7,2.5-4.7c0.9-1.1,1.9-1.7,2.8-1.9c0.9-0.2,1.5-0.3,1.7-0.3c1.7,0,3.4,0.6,5.2,1.9
			c1.8,1.3,3.5,2.6,5.2,4.1c1.9,1.7,3.8,3.6,5.7,5.7c0,0.4-0.6,0.9-1.9,1.4c-1.3,0.5-1.9,1-1.9,1.4c0,1.3,1.7,2.8,5.1,4.6
			c3.4,1.8,7.6,3.4,12.8,4.9c5.2,1.5,10.9,2.8,17.1,4c6.2,1.2,12.2,1.7,17.9,1.7c18.3,1.5,37.1,2.4,56.3,2.8 M370.4,232h0.3
			c0.2,0,0.4,0.2,0.6,0.6l0.3,0.3c-0.4-0.8-0.6-1.4-0.6-1.6v0.3c0-0.6-0.2-1.2-0.6-1.6l0.3,0.3c-0.2,0-0.3-0.2-0.3-0.6
			c0-0.2-0.1-0.3-0.3-0.3c0,0.4,0.1,0.7,0.3,0.9c-0.2,0-0.3-0.3-0.3-0.9c0-0.2-0.1-0.5-0.3-0.9l0.3,0.3c0,0.2,0.1,0.3,0.3,0.3v-0.3
			l-1.3-1.9c0,0.2,0,0.3,0.2,0.3c0.1,0,0.2,0.1,0.2,0.3h-0.3l0.6,2.2l-0.6-1.3v0.3c0,0.2,0.1,0.5,0.3,0.9c0.2,0.4,0.3,1.1,0.3,1.9
			L370.4,232z M370.4,233.9l-0.9-2.2h0.3l0.9,0.3c0.2,0,0.4,0.2,0.6,0.6l0.3,0.3l0.3,1.3l0.3,2.2l0.6,1.3l-0.9-0.9l0.3,0.6l-1.3-1.3
			l-0.3,1.3l-0.3-2.8V233.9z M372.3,236.4l-0.3-1.3l0.6,1.6L372.3,236.4z M376.4,246.5v0.6l-0.9-0.6l-0.6-1.3h0.6L376.4,246.5z
			 M379.2,247.2l0.6,0.6l-0.3-0.3v0.3C379.5,247.6,379.4,247.4,379.2,247.2z M381.1,249.4l-0.3-0.6v0.6H381.1z M384,252.2v-0.3
			c-0.2,0-0.4-0.1-0.6-0.3L384,252.2z M386.5,254.5c0.4,0.4,0.9,0.6,1.6,0.6h0.3L386.5,254.5z M393.5,259.5l-0.9-0.3h-0.9l1.9,0.9
			l0.3-0.3L393.5,259.5z M393.5,260.1v-0.6l-0.9-0.3h-0.9l1.3,0.6l0.9,0.3H393.5z M392.2,258.9c0.2,0,0.3,0.1,0.3,0.3
			c0.2,0,0.3-0.1,0.3-0.3h-0.3H392.2z M393.1,258.9h0.6l-0.6-0.3V258.9z M396,241.5l1.9,0.6l-0.6-0.3l-1.3-0.9V241.5z M398.8,122.9
			v0.9l-0.6,0.6l-0.3,0.3h-0.6l0.6-0.9L398.8,122.9z M400.7,121l0.3-0.6l-0.9,0.9h0.3L400.7,121z M400.1,121.3l0.6-0.3
			c0.2-0.2,0.3-0.4,0.3-0.6L400.1,121.3z M402.9,246.2l1.9,0.3l-0.6,0.6c-0.4-0.4-0.8-0.7-1.3-0.8c-0.4-0.1-0.8-0.4-1.3-0.8h0.6
			l0.6,0.3V246.2z M403.9,263.3c0.6,0,0.9,0.1,0.9,0.3c-0.2-0.2-0.4-0.3-0.6-0.3H403.9z M404.8,263.3l-0.6-0.3h0.3v0.3H404.8z
			 M407.4,265.5l-0.3-0.3L407.4,265.5z M409.9,114l0.6-0.3h-0.3c-0.2,0-0.5,0.2-0.9,0.6L409.9,114z M410.2,113.7
			c-0.2,0-0.5,0.2-0.9,0.6l1.3-0.6H410.2z M417.2,112.1l0.3,0.3l-1.6,0.3H415h-0.6l0.6-1.6c0.6-0.2,1.2-0.4,1.7-0.6
			c0.5-0.2,1.1-0.4,1.7-0.6l-1.3,0.9h-0.6l-1.3,0.9l1.3-0.3h1.6l0.3-0.6h0.6h0.9c0.2,0,0.3,0.1,0.3,0.3l-0.3,0.3l-0.6,0.6
			c0.2,0,0.2,0.1-0.2,0.2c-0.3,0.1-0.7,0.2-1.1,0.2c-0.2,0-0.3-0.1-0.3-0.3H417.2z M422.6,109.6h0.3l-0.3-0.3V109.6z M423.5,108.9
			c-0.2,0.2-0.4,0.3-0.6,0.3v-0.3H423.5z M427.6,112.1h-1.3l-0.9-0.6c-0.2,0-0.4-0.1-0.6-0.3v-1.6l1.6,0.9h0.9l0.9,0.6l-0.6,0.6
			V112.1z M427.3,263l-0.3-0.3v0.3H427.3z M431.4,112.7l0.3,0.3h-3.2l0.3-0.9c0.4-0.2,0.8-0.3,1.3-0.3l0.9,0.3l-0.3-0.3h0.9l3.5,0.6
			L433,113c-0.4,0-0.7-0.1-0.9-0.3h-0.3H431.4z M430.8,110.2l0.3,0.3C430.9,110.5,430.8,110.4,430.8,110.2z M436.8,115.3l-1.6,1.6
			l-0.6-2.8h2.2l-0.3,0.9L436.8,115.3z M441.2,119.4l0.3,0.6l-0.6-0.9L441.2,119.4z M445,123.2l0.3,0.9l0.3,1.6l-1.3-1.9
			c-0.2,0-0.5-0.2-0.9-0.6v-0.6l-0.6,0.3c-0.2-0.4-0.4-0.9-0.5-1.4c-0.1-0.5-0.4-1-0.8-1.4l-0.3-0.6l1.9,1.3l0.3,0.6l0.9,0.6
			l0.3,0.3L445,123.2z M446.6,254.8l-1.9,1.6l-0.6,0.6l-1.3,1.3l1.9-1.3l0.6-0.6L446.6,254.8z M445,256l1.6-1.3l-1.6,1.9l-2.2,1.6
			l1.3-1.3l0.6-0.6L445,256z M448.5,253.2l1.3-1.3l-0.6-0.6l-1.3,1.3l-1.6,1.3l0.6,0.6l1.9-1.3H448.5z M449.5,251.6l-0.3-0.3
			l-1.6,1.6l-1.3,0.9l0.6,0.6l1.9-1.3h-0.3l1.3-1.3L449.5,251.6z M449.1,251V250l0.6-0.6l-0.6,0.6l-0.3-0.3l-0.9,1.3l-0.3,0.6
			l-0.3,0.3l-0.3,0.9L449.1,251z M447.6,251.6h-0.3l0.3-0.3V251.6z M462.7,232h-0.3c-0.4,0.8-0.9,1.6-1.6,2.2l-0.9,2.5h-0.9v0.3
			l-0.6,1.3c-0.6,0.6-0.9,1.2-0.9,1.6l0.3,0.3l0.6-0.6l0.9-0.6l1.6-2.5l-0.6,0.3l0.6-0.6c-0.2,0,0-0.3,0.6-0.8
			c0.6-0.5,0.9-1.1,0.9-1.7l-0.3,0.3l0.3-0.3h-0.3l0.6-0.9V232z M462.1,233.6l0.6-0.9l-0.3-0.6c-0.4,0.8-0.9,1.6-1.6,2.2l-0.9,2.5
			h-0.9v0.3l-0.6,1.3c-0.6,0.6-0.9,1.2-0.9,1.6c0,0.2,0.1,0.3,0.3,0.3l0.6-0.6l0.9-0.6l1.6-2.5l-0.6,0.3l0.6-0.6
			c-0.2,0,0-0.3,0.6-0.8c0.6-0.5,0.9-1.1,0.9-1.7l-0.3,0.3l0.3-0.3H462.1z M459.3,237.4l0.3-0.3l-0.6,0.9L459.3,237.4z M459.3,237.4
			l-0.3,0.6l0.6-0.9L459.3,237.4z M468.4,222.5c-0.4,0.4-0.7,0.8-0.8,1.3c-0.1,0.4-0.4,0.8-0.8,1.3c0.4-0.4,0.7-0.8,0.9-1.3
			L468.4,222.5z M467.8,223.8l0.6-1.3c-0.4,0.4-0.7,0.8-0.8,1.3c-0.1,0.4-0.4,0.8-0.8,1.3C467.3,224.6,467.6,224.2,467.8,223.8z
			 M470.3,219.3c-0.4,0.4-0.6,0.7-0.6,0.9v0.3L470.3,219.3z M469.7,220.6l0.6-1.3c-0.4,0.4-0.6,0.7-0.6,0.9V220.6z M475.7,208.6
			l-0.3-0.3l-0.3,0.6L475.7,208.6z M610.2,66.9l-0.3-0.6l1.9,0.3l-0.3,0.3H610.2z M621.5,68.4l2.2-0.3l-0.6,0.9
			c-0.6,0-2-0.2-4.1-0.6l1.3-0.3h0.9L621.5,68.4z M626,69.7h-0.3c-0.2,0-0.4-0.1-0.6-0.3L626,70V69.7z"/>
		<path d="M574.1,160.5c0.4,0,0.8,0.1,1.3,0.3c0.4,0.2,0.6,0.5,0.6,0.9c0,0.2-0.2,0.4-0.5,0.6c-0.3,0.2-0.6,0.5-0.8,0.9v0.6
			c0,0.2,0.1,0.3,0.3,0.3c0-0.2-0.3,0-0.9,0.6v0.6c0,0.2,0.1,0.3,0.3,0.3c0,0.4-0.2,0.7-0.6,0.8c-0.4,0.1-0.6,0.4-0.6,0.8
			c0,0.2,0,0.4,0.2,0.6c0.1,0.2,0.2,0.4,0.2,0.6h-0.6l0.3,0.9l-0.9,1.9c0,0.2-0.1,0.3-0.3,0.3c-0.2,0-0.3,0.1-0.3,0.3v0.6l-0.6,1.3
			l-0.3,1.6c0,0.2-0.1,0.3-0.3,0.2c-0.2-0.1-0.4,0-0.6,0.2c0,0.2,0,0.4,0.2,0.5c0.1,0.1,0.2,0.3,0.2,0.5l-1.3,3.2
			c-0.6,1.3-1.4,3.4-2.4,6.3c-0.9,3-2.2,6-3.8,9.2c-1.6,3.2-3.5,5.9-5.9,8.2c-2.3,2.3-5.1,3.5-8.2,3.5c-2.5,0-4.5-0.7-5.9-2.1
			c-1.4-1.4-2.3-3-2.8-4.9c-0.5-1.9-0.8-3.9-0.8-6c0-2.1,0-3.8,0-5.1c0-1.1,0-2.2,0-3.5s0.1-2.5,0.3-3.8l-0.3,0.3l-0.9,1.9
			c0,0.2-0.1,0.3-0.3,0.2c-0.2-0.1-0.3,0-0.3,0.2v0.6v0.3l-2.2,3.2c-1.1,1.5-2.3,3.3-3.6,5.5c-1.4,2.2-3,4.4-4.9,6.6
			c-1.9,2.2-4.1,4.1-6.6,5.7c-2.5,1.6-5.4,2.4-8.5,2.4c-2.3,0-4.2-0.5-5.5-1.6c-1.4-1.1-2.5-2.3-3.5-3.6c-0.9-1.4-1.6-2.8-1.9-4.3
			c-0.3-1.5-0.5-2.6-0.5-3.5c0-8,0.6-15.7,1.9-23.1c1.3-7.4,2.6-14.7,4.1-21.8c4-19.2,7.8-33.2,11.4-41.9c3.6-8.7,6.2-13.1,7.9-13.1
			c1.5,0,2.8,0.4,4,1.1c1.2,0.7,2.2,1.6,3.2,2.5c0.9,0.9,1.9,2.3,3,4c0,1.1-0.3,2.5-0.9,4.3c-0.6,1.8-1.5,4.3-2.7,7.4
			c-1.2,3.2-2.5,7.2-4.1,12.2c-1.6,5-3.3,11-5.2,18.2c-0.8,3-1.9,6.6-3.2,10.9c-1.3,4.3-2.5,8.9-3.8,13.6c-1.3,4.7-2.4,9.4-3.3,14.1
			c-0.9,4.6-1.4,8.8-1.4,12.3c0,1.9,0.5,2.8,1.6,2.8c2.5,0,5.3-1.6,8.2-4.7c3-3.2,5.4-5.7,7.3-7.6l1.3-1.3l2.2-2.5l0.9-0.6l0.9-1.6
			c0-0.2,0.2-0.5,0.6-0.9l0.9-1.3l0.3,0.3l0.3-0.9c0.6-0.8,1.3-1.7,1.9-2.7c0.6-0.9,1.2-1.7,1.6-2.4l-0.3,0.3l-0.3,0.6l0.3,0.9
			l1.3-1.9l-0.6-0.6l0.3-0.6l0.6-0.6v0.6l0.3-0.6v0.3c4-24,8-41.3,11.9-51.9c3.9-10.5,6.9-15.8,9-15.8c1.5,0,2.8,0.4,4,1.1
			c1.2,0.7,2.2,1.6,3,2.5c0.8,0.9,1.5,1.8,2.1,2.5c0.5,0.7,0.8,1.2,0.8,1.4c0,1.1-0.3,2.4-0.8,4c-0.5,1.6-1.3,3.9-2.4,6.8
			c-1.1,3-2.3,6.7-3.6,11.2c-1.4,4.5-2.9,10.2-4.6,16.9c-0.4,2.3-1.2,5.5-2.2,9.6c-1.1,4.1-2.2,8.4-3.3,12.8
			c-1.2,4.4-2.2,8.5-3.2,12.3c-0.9,3.8-1.4,6.6-1.4,8.5c0,1.3,0.3,1.9,0.9,1.9c0.6,0,1.8-1.2,3.5-3.5c1.7-2.3,4-6.2,7-11.7l0.6-1.6
			l0.3-0.9l0.3-0.3h-0.3c0-0.2,0-0.3,0.2-0.3c0.1,0,0.2-0.1,0.2-0.3l1.3-1.9l0.6-1.6c0-0.2,0.2-0.5,0.6-0.9l0.6-1.3l0.6-0.6h-0.3
			c0.8-1.7,1.9-3.4,3.2-5.1l-0.3,0.3l-0.3,0.6l0.3,1.3v-0.3h0.3l0.3-0.3l0.6-1.3l-0.3-0.6l-0.3-0.9l0.6-0.6v0.6l0.3-0.6v0.3l0.3-0.6
			v0.3l0.3-0.3v0.9h-0.3V164c-0.4,0-0.6,0.3-0.6,0.9l0.3-0.6c-0.2,0-0.1,0.2,0.3,0.6l-0.3,0.6l0.6-1.3l0.9-1.6
			c0.6-1.1,1.3-1.6,1.9-1.6v-0.6H574.1z M540.6,171.9c-0.2,0-0.3,0.2-0.3,0.6L540.6,171.9z"/>
		<path d="M630.4,105.1c1.7,1.5,2.7,3,3,4.6c0.3,1.6,0.5,2.7,0.5,3.3c-0.2,5.5-1,10.5-2.4,15c-1.4,4.5-2.6,8.9-3.6,13.1
			c-3,10.8-5.1,20.5-6.3,29.1c-1.3,8.7-1.9,15.5-1.9,20.6c0,3.6,0.2,5.9,0.6,7c0.4,1.1,0.6,1.7,0.6,1.9c0-0.2-0.2,0.1-0.5,0.8
			s-0.9,1.6-1.7,2.7c-0.8,1.1-1.8,2-3,2.8c-1.2,0.8-2.6,1.3-4.3,1.3c-2.3,0-4.1-1.9-5.2-5.7c-1.2-3.8-1.7-8.3-1.7-13.6
			c0-5.7,0.9-13.6,2.7-23.7c1.8-10.1,5.1-22.7,10-37.6c0-0.2,0-0.4,0.2-0.5c0.1-0.1,0.2-0.3,0.2-0.5c-4.2,4.6-7.6,9.3-10.1,14.1
			c-2.5,4.7-5.3,9.5-8.2,14.4l-0.6,0.6c0,0.2-0.1,0.4-0.2,0.5c-0.1,0.1-0.2,0.3-0.2,0.5l-0.6,0.9v-0.3v0.3v0.6v0.3l-0.9,1.9
			l-1.3,2.8c-1.3,8-2.2,15.5-2.8,22.3c-0.6,6.9-0.9,12.1-0.9,15.7c0,2.1,0.1,3.3,0.3,3.5c0,0.2-0.3,0.7-0.9,1.4
			c-0.6,0.7-3.3,1.1-7.9,1.1c-4,0-6.1-0.9-6.2-2.7c-0.1-1.8-0.2-4.5-0.2-8.1c0-3.4,0.3-8.2,0.9-14.6l-0.6,2.2l-0.3-0.3l0.3,0.6
			l-2.2,4.1l-0.3,0.9v-0.3l-0.3,0.3l0.3,0.3h-0.6l-0.6,1.3l-0.6,1.3l-0.9,1.3l-0.6,0.3h0.3c-1.3,1.7-2.2,2.7-2.8,3.2v-0.3l0.6-0.3
			l-0.3-0.9l-0.3-0.3l0.3-0.3c0-0.2-0.1-0.3-0.3-0.3l0.3-0.3l0.9-1.6l0.3,0.3v-0.3c0-0.4,0.1-0.9,0.3-1.4c0.2-0.5,0.5-0.9,0.9-1.1
			l1.3-2.8v0.3c0-0.2,0.1-0.3,0.2-0.2c0.1,0.1,0.2,0.1,0.2-0.2c0.2,0,0.1-0.2-0.3-0.6c0.4-0.4,0.6-0.8,0.6-1.3
			c-0.4,0.4-0.6,0.7-0.6,0.9l-0.6,1.3l-1.3,1.9l-0.9,1.3l-0.9,1.3l-1.3,1.9l-0.9,1.3l-0.6,0.6l-0.9,1.3l-0.9,0.9
			c-0.6,0.6-1.1,0.9-1.3,0.9h-0.3h0.3l-0.3,0.3c-0.8,0-1.3-0.5-1.3-1.6c0.2,0,0.4-0.1,0.6-0.3c0.2-0.2,0.3-0.5,0.3-0.9l0.6-0.3
			l0.6-0.9v-1.3h0.6l0.6-1.9l0.3-0.9l0.6-1.6l0.9-0.6l-0.3-0.3l0.9-2.5c2.3-4.6,4.6-10.3,7-16.9c2.3-6.6,4.6-13.5,6.8-20.6
			c2.2-7.1,4.3-14,6.3-20.9c2-6.9,4-12.8,5.9-17.9c1.1-4.4,1.7-8,1.9-10.6c0.2-2.6,1.8-4,4.7-4c4.2,0,7.2,0.7,9,2.2
			c1.8,1.5,2.7,2.5,2.7,3.2c0,1.9-0.7,4.7-2.2,8.5c-1.5,3.8-3.5,9.9-6,18.3c0.6-1.1,1.3-2.1,1.9-3c0.6-0.9,1.3-1.9,1.9-3
			c0.8-1.1,1.8-2.6,3-4.6c1.2-2,2.5-4,4-5.9c1.5-1.9,3.1-3.5,4.9-4.9c1.8-1.4,3.8-2.1,6.2-2.1C626.3,103.2,628.1,103.9,630.4,105.1z
			 M574.1,186.8v-0.3l-0.3,0.3l0.3,0.6l0.3-0.6H574.1z M574.1,183l0.3-0.3h-0.3V183z"/>
		<path d="M636.7,199.4c-0.4-2.1-0.7-4-0.8-5.5c-0.1-1.6-0.2-3.2-0.2-4.9c-0.2-6.3,0.2-12.5,1.3-18.7c1.1-6.1,2.1-12,3.2-17.7
			c3-16.2,6-28.1,9-35.6c3.1-7.5,5.4-11.2,7.1-11.2c1.5,0,2.8,0.4,4,1.3c1.2,0.8,2.2,1.7,3.2,2.7c0.9,0.9,1.9,2.3,3,4
			c0,1.7-1,5-3,9.8c-2,4.9-4.4,13.1-7.1,24.7c-0.6,3-1.5,6.4-2.7,10.3c-1.2,3.9-2.3,8-3.5,12.2c-1.2,4.2-2.1,8.5-2.8,12.8
			c-0.7,4.3-1.1,8.3-1.1,11.9c0,0.4,0,0.8,0.2,1.3c0.1,0.4,0.2,0.8,0.2,1.3c0.6-0.6,2.2-1.8,4.6-3.5c2.4-1.7,4.1-3.3,4.9-4.7
			l2.2-2.2l1.6-0.9l0.6-1.3l0.6-0.6l0.3-0.3l1.3-1.3h-0.3c1.1-1.1,2.2-2.4,3.5-4.1l-0.3,0.6l-0.3,0.6l0.6-0.3l0.6-0.9v-0.6
			c0-0.2,0.1-0.4,0.3-0.6h0.3l-0.3,0.3l0.3-0.3l0.3-0.3v0.3l0.3-0.6v0.3l0.9-0.9c0.2-0.4,0.4-0.7,0.6-0.8c0.2-0.1,0.4-0.3,0.6-0.5
			c0.2-0.2,0.4-0.3,0.6-0.3h-0.3l0.3-0.3h0.3c0.4,0,0.8,0.1,1.3,0.3c0.4,0.2,0.6,0.5,0.6,0.9c0,0.2-0.3,0.5-0.8,0.8
			c-0.5,0.3-0.8,0.7-0.8,1.1c0,0.2,0.1,0.4,0.3,0.6c0-0.2-0.3,0-0.9,0.6v0.6c0-0.4,0-0.3,0,0.3c0,0.6-0.4,1.4-1.3,2.2L669,183
			l-1.9,1.9l-0.6,1.6l-0.9,1.6c0,0.2-0.1,0.3-0.3,0.2c-0.2-0.1-0.3,0-0.3,0.2v0.6l-1.9,2.8c-0.6,1.1-1.5,2.4-2.5,4
			c-1.1,1.6-2.3,3.2-3.8,4.7c-1.5,1.6-3.1,3-4.9,4.3c-1.8,1.3-3.9,2-6.2,2.2c-1.5,0-3-0.5-4.6-1.4c-1.6-0.9-2.6-2-3-3L636.7,199.4z
			 M657.3,88.1l0.3-1.6c0-0.2,0-0.4,0.2-0.5c0.1-0.1,0.2-0.3,0.2-0.5v-0.6c0-0.2,0-0.4,0.2-0.6c0.1-0.2,0.2-0.5,0.2-0.9l0.6,0.6v0.6
			v1.3h-0.6l0.3,0.3c0,0.4,0.1,0.6,0.3,0.6l0.9,0.3l-0.6-1.6l-0.3,0.3l0.6-0.6l0.3-0.3v-0.6c0-0.6,0.1-1.1,0.3-1.3l-0.3-0.3h-0.6
			c0,0.2-0.1,0.3-0.3,0.3v0.3l0.3-0.9l-0.3-1.3l0.6-3.5c0.2-0.2,0.4-0.3,0.6-0.3V77l0.3-0.6l0.6-1.6c0-1.9,0.5-3.7,1.6-5.5
			c1.1-1.8,2.2-3.4,3.5-4.9c1.3-1.5,2.5-2.6,3.8-3.5c1.3-0.8,2.1-1.3,2.5-1.3c1.7,0,2.9,0.8,3.6,2.4c0.7,1.6,1.3,3.6,1.7,6.2v0.3
			l0.6,0.9l-0.6-0.6v1.6l0.9,0.6l-0.3,2.8l0.3,0.3l-0.3-0.3v0.3c0.2,0,0.3,0.1,0.3,0.3l-0.3,1.6v1.3l-0.3,1.9
			c-0.4,0.8-0.8,1.7-1.1,2.7c-0.3,0.9-0.6,1.6-0.8,2.1v-0.6v-0.6l-0.3-0.9l-0.9,2.8l0.6-0.3v0.6v0.3v0.3l-0.3-0.3v0.3l0.3,0.3v-0.3
			v0.6h-0.3c0.2,0,0.3,0.1,0.3,0.3l-0.3-0.3l-0.6-0.3c-0.2,0.2-0.3,0.4-0.3,0.5c0,0.1-0.1,0.3-0.3,0.5l0.6,0.6l0.3,0.6l-0.3-0.3
			c0.2,0.2,0.3,0.5,0.3,0.9l-0.9,1.3v0.3l-0.6,1.9c-0.2,0.4-0.4,0.9-0.6,1.6c-0.2,0.6-0.4,1.1-0.6,1.3l-0.3-0.3V95h-0.3
			c0.2,0,0.3,0.2,0.3,0.6c-0.4,0.4-0.6,0.8-0.6,1.3c0,0.4-0.3,0.8-0.9,1.3h-0.3l-1.3,1.6c-0.6,1.3-1.6,2-2.8,2.2h-0.3
			c-0.8,0.4-1.5,0.6-1.9,0.6c-0.8,0-1.6-0.3-2.2-0.9l0.3-0.3l-0.3-0.3c-0.2,0-0.3,0.1-0.3,0.3c-0.4-1.1-0.8-1.7-1.3-1.9
			c-0.4-0.2-0.7-0.5-0.9-0.9h0.3l-0.3-0.6h0.6l-0.3-0.9l-0.3-0.3l-0.3,0.6c-0.4-0.8-0.6-1.4-0.6-1.6l-0.3-1.6c0-0.2-0.1-0.4-0.2-0.5
			c-0.1-0.1-0.2-0.4-0.2-0.8c0-0.4,0-0.7,0.2-0.9c0.1-0.2,0.2-0.5,0.2-0.9l-0.3-2.2l1.6-0.3l0.3-0.9h-0.6l-0.9-0.3v0.9H657.3z
			 M658.9,92.5l0.3-0.6l-0.6,0.3v-0.3c0.4,0,0.6-0.2,0.6-0.6h-0.6v-0.3l-0.3-0.3l-0.6,0.6v0.3l0.6,0.6l-0.6,0.3l0.3,0.3
			c0,0.4,0.1,0.6,0.3,0.6l0.6-0.6V92.5z M660.5,79.8v-0.9l-0.9-0.3l0.3,1.9L660.5,79.8z M659.5,96.9l0.3,1.3l0.9-0.6l-0.3-0.3h0.3
			l-0.3-0.6l-0.3,0.3H659.5z M660.8,97.9v0.6l0.6,0.3v-0.6L660.8,97.9z M667.4,177.6l-0.6,0.6l0.3,0.3v-0.3h0.3v-0.3V177.6z
			 M670.3,94.7l0.3,0.3v-0.3l0.3-0.3l-0.3-0.3l-0.3,0.3V94.7z M673.1,92.5h0.3l-0.3-0.3V92.5z M673.7,91.5c-0.2,0-0.3-0.1-0.3-0.3
			L673.7,91.5z M676.9,78.6h0.6l-0.6-0.6V78.6z M677.2,77.3l0.6,0.3l-0.6-1.3V77.3z M677.5,73.5l0.3-0.3h-0.3V73.5z M678.2,76
			c0.2,0,0.3-0.1,0.3-0.3c-0.2,0-0.3,0.1-0.2,0.2C678.4,76,678.4,76,678.2,76z M678.8,72.2l-0.3,0.3
			C678.5,72.3,678.6,72.2,678.8,72.2z"/>
		<path d="M744,144.4c-0.4,3-2.3,6.1-5.5,9.5c-3.3,3.4-7.3,5.4-12.2,6c-1.1,2.3-2.7,6.5-4.9,12.5c-2.2,6-5,11.8-8.4,17.2l-0.3,0.6
			l-0.3,0.6l-0.3,0.3v0.3v0.3v0.3l-0.6,0.6v0.6l-0.3,0.3l-1.6,2.5h0.3c-0.4,0.8-0.9,1.6-1.4,2.4c-0.5,0.7-1.1,1.4-1.7,2.1l-0.6,0.6
			l-0.3,0.6v0.3l-1.6,1.3l-0.9,1.3l-1.3,1.3l-0.9,0.3h0.3c-0.8,0.4-1.6,0.9-2.4,1.4c-0.7,0.5-1.3,1-1.7,1.4l0.3-0.3l0.3-0.3l0.3-1.3
			l-0.3,0.3l0.3-0.6l-0.3,0.3V207l-0.3,0.3l-0.3,0.3l-0.6,0.3v0.9v0.9c-0.2,0.2-0.4,0.3-0.6,0.3h-0.3l0.6-0.3l-0.6,0.3v-0.3v0.3
			h-0.3h-0.3l0.3-0.9c0.2,0,0.3,0.1,0.2,0.3c-0.1,0.2-0.1,0.3,0.2,0.3c0.4,0,0.6-0.2,0.6-0.6l-0.3,0.3l-0.3-0.3l0.3-0.3h-0.3
			l0.6-0.3h-0.3c0.2,0.2,0.3,0.2,0.2,0c-0.1-0.2,0-0.3,0.5-0.3V208c0.4,0-0.1,0.4-1.4,1.3c-1.4,0.8-2.7,1.3-4,1.3h-0.9
			c-0.4,0.2-0.9,0.3-1.6,0.3c-4.4,0-7.7-1.7-9.8-5.1c-2.1-3.4-3.6-7.1-4.6-11.1c-0.9-4-1.4-7.6-1.4-10.9c0-3.3,0-4.8,0-4.6
			c0-10.3,1.1-20.4,3.2-30.1c2.1-9.7,4.6-18.3,7.6-25.9c3-7.6,5.9-13.9,8.9-18.8c3-5,5.3-8,7-9H699c0-0.2,0.5-0.5,1.6-0.9
			c1.1-0.4,2.1-0.6,3.2-0.6c1.7,0,3.3,1.6,4.7,4.7c0.4-0.4,1.1-1,2.1-1.7c0.9-0.7,2.2-1.1,3.6-1.1c6.5,0,11.1,3.3,13.6,9.8
			c2.5,6.5,3.8,14.9,3.8,25c0,5.9-0.7,12.1-2.2,18.7c1.3-0.4,2.5-0.9,3.8-1.6c1.3-0.6,2.2-1.6,2.8-2.8h0.3v-0.9v0.3l0.3-0.3
			l-0.3-0.3l0.3-0.3l0.3-2.2l0.3-0.9l0.6-0.6l-0.3-0.3c0.4-1.7,0.6-3,0.6-3.8v0.6l0.9,0.6l0.3,0.3c0,0.2,0,0.3,0.2,0.3
			c0.1,0,0.2,0.1,0.2,0.3l-0.3,1.9l0.3-1.3l0.6-1.9c0-0.2,0.1-0.3,0.3-0.2c0.2,0.1,0.3,0,0.3-0.5v-0.6v-0.3v-0.6l0.6-1.3l-0.3-0.6
			l0.3-1.3c0-0.6,0.1-1.1,0.3-1.3c0-0.2,0.1-0.4,0.3-0.6l-0.3-0.6c0.6-0.6,1.3-0.9,1.9-0.9c0.4,0,0.7,0.4,0.8,1.1
			c0.1,0.7,0.3,1.5,0.5,2.4l-0.3,0.6c0,0.2,0.1,0.3,0.3,0.3l0.3,0.3c0,0.2-0.1,0.4-0.3,0.5c-0.2,0.1-0.3,0.4-0.3,0.8
			c0,0.2,0.1,0.4,0.3,0.5c0.2,0.1,0.3,0.4,0.3,0.8l-0.3,0.3l0.3,2.2l-0.3,0.3c-0.2,0-0.3,0.1-0.3,0.3l0.3,0.6l-0.3,0.6l0.3,1.6
			c-0.4,0-0.7,0.1-0.9,0.3c0,0.2,0.1,0.3,0.3,0.3l0.3,0.3L744,144.4z M712.3,156.7c-2.7-1.5-5.1-3.4-7-5.9c-1.9-2.4-3.4-5-4.6-7.6
			c-1.2-2.6-2-5.2-2.5-7.6c-0.5-2.4-0.8-4.3-0.8-5.5c-1.9,5.1-4.3,12.4-7.1,22.1c-2.8,9.7-4.3,20.6-4.3,32.6c0,1.5,0,3.1,0.2,4.9
			c0.1,1.8,0.4,3.4,0.8,4.9c0.4,1.5,0.9,2.7,1.6,3.8c0.6,1.1,1.5,1.6,2.5,1.6c1.5,0,3-0.7,4.6-2.2c1.6-1.5,3.1-3.4,4.6-5.9
			c1.5-2.4,2.9-5.1,4.3-7.9c1.4-2.8,2.6-5.6,3.6-8.4v-0.6v0.3l1.9-8.9l0.3-1.6v0.3l0.3-0.6h-0.3V164l0.9-2.8l0.3-2.2l0.6-1.6H712
			h0.3V156.7z M694.3,209.2c0.4-0.4,0.6-0.7,0.6-0.9c-0.4,0.4-0.8,0.7-1.1,0.8c-0.3,0.1-0.7,0.3-1.1,0.5h-0.3c-0.6,0-1.2,0-1.6,0.2
			c-0.4,0.1-0.9,0.2-1.6,0.2v0.3l0.3,0.3h0.9h0.9l-0.3-0.3h0.6c0.2-0.2,0.4-0.3,0.6-0.2c0.2,0.1,0.4,0,0.6-0.2l0.3,0.3L694.3,209.2z
			 M702.2,202.3c0.8-1.3,1.4-2,1.6-2.2c-0.8,1.1-1.8,2.2-2.8,3.3c-1.1,1.2-1.7,1.7-1.9,1.7v0.6l0.9-0.9l0.3,0.3c0-0.4,0.3-1,0.8-1.7
			C701.6,202.6,702,202.3,702.2,202.3z M701.9,203.8c0-0.2-0.2-0.3-0.6-0.3L701.9,203.8z M702.5,202.3h-0.3l0.3,0.3V202.3z
			 M703.5,201.6l0.3-0.9c0,0.2-0.1,0.4-0.2,0.5C703.5,201.3,703.5,201.4,703.5,201.6z M704.7,199.4l0.3-0.3L704.7,199.4v-0.6
			c0,0.2-0.2,0.5-0.6,0.9c0.2-0.2,0.3-0.4,0.3-0.6L704.7,199.4z M705.1,199.4c0.2,0,0.3-0.1,0.3-0.3L705.1,199.4z M705.4,199.7
			l0.3-0.3h-0.3V199.7z M706.6,199.7l-0.3-0.3v0.3h-0.6h0.3v0.6l0.3-0.6H706.6z M711.4,167.5l-0.6-0.3l-0.9,0.6l1.3,0.6L711.4,167.5
			z M716.4,137.1c0-7.2-0.3-13.5-0.9-19c-0.6-5.5-1.3-8.5-1.9-9.2c-0.6,0-1.1,1.4-1.4,4.1c-0.3,2.7-0.5,5.5-0.5,8.2
			c0,1.7,0.2,5,0.5,9.8c0.3,4.9,1.6,9.1,4,12.7c0.2-1.1,0.3-2.2,0.3-3.3C716.4,139.3,716.4,138.1,716.4,137.1z"/>
		<path d="M786,173.8c0.4,0,0.8,0.1,1.3,0.3c0.4,0.2,0.6,0.5,0.6,0.9c0,0.2-0.1,0.4-0.3,0.5c-0.2,0.1-0.4,0.4-0.6,0.8
			c0,0.2,0,0.4,0.2,0.5c0.1,0.1,0.2,0.3,0.2,0.5l-0.6,0.3v0.6c0,0.2-0.2,0.4-0.5,0.5c-0.3,0.1-0.5,0.4-0.5,0.8c0,0.2,0,0.4,0.2,0.5
			c0.1,0.1,0.2,0.3,0.2,0.5h-0.6l0.3,0.6l-0.6,1.6c0,0.2-0.1,0.3-0.3,0.3h-0.3c0,0.2,0,0.4,0.2,0.5c0.1,0.1,0.2,0.3,0.2,0.5
			l-0.6,0.6l-0.3,1.3c0,0.2-0.1,0.3-0.3,0.3h-0.3c0,0.2,0.1,0.4,0.3,0.6l-0.9,2.8c-0.8,1.7-1.6,3.5-2.4,5.4c-0.7,1.9-1.6,4-2.7,6.3
			c-0.4,0.6-0.8,1.6-1.3,2.8c-0.4,1.3-1.1,2.6-1.9,4c-0.8,1.4-2,2.5-3.3,3.5c-1.4,0.9-3.2,1.4-5.5,1.4c-3.2,0-5.4-1-6.8-3
			c-1.4-2-2.3-4.3-2.7-6.8c-0.4-2.5-0.5-5-0.3-7.3c0.2-2.3,0.3-3.8,0.3-4.4c0-5.1,0.3-10.2,0.8-15.5c0.5-5.3,1.3-10.3,2.2-15.2
			c0.9-4.8,1.9-9.3,3-13.4c1.1-4.1,2.1-7.5,3.2-10.3c-2.3-1.1-5-3-7.9-5.7c-2.7,8.2-5,15.1-6.6,20.7c-1.7,5.6-3.7,11.5-6,17.9
			l-0.3,0.3l-0.3,0.3h0.3l-0.3,0.3v0.3v0.3l-0.3,0.9h0.3l-0.3,0.3l-0.3,1.9c-0.4,1.3-0.8,2.4-1.3,3.5v0.6l-0.3,0.3l0.3,0.3h-0.3
			l-0.6,1.3l-0.6,1.3h0.3l-0.6,0.6l-0.3,0.3c-0.2,0.4-0.4,0.9-0.6,1.4c-0.2,0.5-0.4,1-0.6,1.4h-0.3h0.3v-0.6l-0.6-0.9l-0.3,0.3
			l0.3-0.3c0-0.2,0-0.3-0.2-0.3c-0.1,0-0.2-0.1-0.2-0.3l0.9-1.3l-0.3-0.3c0-0.4,0-0.7-0.2-0.8c-0.1-0.1,0.4-1.4,1.4-4l0.3,0.3
			c0-0.2,0.1-0.3,0.2-0.2c0.1,0.1,0.2,0.1,0.2-0.2h-0.3v-0.6l-0.6,1.6h-0.6v0.9l-0.6,1.3L737,182l-0.6,1.3l-0.3,0.6l-0.6,1.3
			l-0.6,0.9c-0.2,0.4-0.4,0.7-0.6,0.9l-0.3,0.3h0.3l-0.3,0.3l-0.3,0.3c-0.8,0-1.3-0.3-1.3-0.9l0.6-1.3l-0.3-0.6l0.6-0.3l-0.3-0.6
			l0.6-0.6v-1.3l0.3-1.6l0.3-0.9l0.3-1.3l0.6-0.6l-0.3-0.3l0.6-2.2c1.1-3.4,2.2-7.4,3.5-12.2c1.3-4.7,2.5-9.6,3.8-14.7
			c1.3-5.1,2.4-10.1,3.3-15c0.9-5,1.7-9.4,2.4-13.4c-1.9-3.6-3.2-7-3.8-10.3c-0.6-3.3-0.9-6.1-0.9-8.4c0-2.5,0-4.2,0-5.1
			c0-0.8,1.4-1.3,4.1-1.3c4.8,0,8.4,0.2,10.6,0.6c2.2,0.4,3.7,1.2,4.4,2.2c0.7,1.1,1.1,2.4,0.9,4.1c-0.1,1.7-0.1,3.8,0.2,6.3
			c0.2,2.5,0.9,5.5,2.1,9c1.2,3.5,3.3,7.4,6.5,11.9c1.5,0.4,2.7,1.1,3.8,2.1c1.1,0.9,1.9,1.9,2.7,2.8c0.7,0.9,1.5,2.1,2.4,3.3
			c0,0.6-0.2,1.4-0.6,2.2v0.3v0.3v-0.3v0.3c0,0.2,0.1,0.3,0.3,0.3l-0.6,0.3l0.3-0.3c0-0.2-0.1-0.3-0.3-0.3c0,1.7-0.8,4.5-2.5,8.5
			c-1.7,4-3.2,9.9-4.4,17.7c-0.6,4.2-1.7,9.3-3.2,15.3c-1.5,6-2.2,11.9-2.2,17.6c1.3-1.7,2.5-3.4,3.6-5.2c1.2-1.8,2.3-3.5,3.3-5.2
			l0.3-0.6l0.3-0.6v-0.3l0.3-0.3l0.9-1.6l0.9-1.9h-0.3l0.6-0.6l0.6-0.6c0.4-0.6,0.8-1.4,1.1-2.2c0.3-0.8,0.7-1.5,1.1-1.9v0.3
			l-0.3,0.6l0.3,0.9l0.6-1.3h0.6l-0.3-0.3l-0.6-0.6l0.3-0.3c0.2-0.4,0.4-0.6,0.6-0.6l-0.3,0.3h0.6v-0.6v0.3l0.3-0.3v0.9
			c-0.2,0-0.3,0-0.2-0.2c0.1-0.1,0-0.2-0.2-0.2c-0.2,0-0.4,0.1-0.6,0.3c0,0.2,0.1,0.3,0.3,0.3v-0.3c0.2,0,0.3,0.1,0.3,0.3l0.6-1.3
			l0.9-1.3l0.9-0.9c0.2-0.2,0.4-0.3,0.6-0.3h-0.3l0.3-0.3H786z M738.6,181.1h0.3h0.3H738.6z M741.4,177.3h-0.3l0.3,0.6v-0.3V177.3z
			 M741.7,174.7l-0.3-0.3v0.3H741.7z M746.2,165.2l0.3-0.6L746.2,165.2z"/>
	</g>
</g>
<g id="Layer_2">
</g>
</svg>
