<?xml version="1.0" encoding="utf-8"?>
<!-- Generator: Adobe Illustrator 22.1.0, SVG Export Plug-In . SVG Version: 6.00 Build 0)  -->
<svg version="1.1" id="Layer_1" xmlns="http://www.w3.org/2000/svg" xmlns:xlink="http://www.w3.org/1999/xlink" x="0px" y="0px"
	 viewBox="0 0 398.5 248.5" style="enable-background:new 0 0 398.5 248.5;" xml:space="preserve">
<style type="text/css">
	.st0{fill-rule:evenodd;clip-rule:evenodd;}
	.st1{fill:none;stroke:#FFFFFF;stroke-width:0.5;stroke-miterlimit:10;}
</style>
<g>
	<path class="st0" d="M345.9,135.1c-0.2-0.3-0.5-0.9-0.5-0.9l-42.8-86.5c-3.2,3.7-8.3,6.4-14.2,7.2c10.6,19.4,43,86.7,43.2,87
		c1,1.9,5.3,3.1,9.6,1.1C345.2,140.9,346.9,136.9,345.9,135.1z"/>
	<path class="st0" d="M288.2,14.8C270.2,4,258,4.5,258,4.5v0c-27.8-2.9-50.9,22.5-70,41.7c-21.6,21.6-46.4,44.5-67.4,49
		c-19.6,4.2-25.1-8.6-25.1-8.6l0,0c-0.1,0.7-0.1,1.4-0.1,2c1.8,62.9,38.2,53.1,56.1,44.7c-13.6,7.5-60.1,28.2-62-40.3
		c0.7-21.7,13.1-41.2,32.6-55.2c3.5-2.3,26.4-17.6,42.9-15c4.1,0.6,8.1,4.4,10.2,7.5c0.2,0.3,0.3,0.6,0.5,0.9
		c-1.8-2.4-4.1-4.5-6.2-5.5c-14.2-5.6-37.9,12.7-37.9,12.7s10.3,7,11.7,18c0.5,3.8,0.2,7.7-2.2,18.3c12-7.6,24.2-18.9,35.4-29.9
		c1.2-1.3,2-5.2,2-6.7c0-0.2-0.1-0.4-0.1-0.6c0-0.2,0.1-0.5,0.1-0.7c0-7.2-3.8-13.7-9.9-18.5c0,0,0,0,0,0h0c0,0-0.1-0.1-0.1-0.1
		c-0.7-0.5-1.3-1-2-1.5c-0.2-0.1-0.3-0.2-0.5-0.3c-0.6-0.4-1.2-0.8-1.9-1.1c-0.3-0.2-0.6-0.3-0.8-0.5c-0.6-0.3-1.2-0.6-1.9-0.9
		c-0.2-0.1-0.5-0.2-0.7-0.3c-5.4-2.4-11.7-3.8-18.4-3.8c-4.1,0-8,0.5-11.7,1.5c-43.9,9.7-75.9,40-75.9,76c0,13.5,4.5,26.2,12.5,37.3
		c7.6,9.2,21.3,18.7,45.4,19.9c0,0,22,2.7,46.7-14.5c16.3-11.3,32.9-29.7,53-48.9c18.7-17.7,31.2-25.9,39-29.7
		c6.4-3.9,12.1-5,16.7-2.8c3.4,1.9,6.2,3.3,10.1,3.9h0h0c1.5,0.3,3.1,0.4,4.8,0.4c9.7,0,17.8-4.7,20.8-11.1v0
		C307.8,36.2,306.2,25.6,288.2,14.8z"/>
</g>
<line class="st1" x1="145.9" y1="233.7" x2="238.1" y2="233.7"/>
<g>
	<path d="M73.5,231.7H57.9l-3.8,13.2h-7.6l15.7-52.2h7.1l15.5,52.2h-7.6L73.5,231.7z M59.5,226h12.3l-6-21.2h-0.2L59.5,226z"/>
	<path d="M139.8,238.1c-1.2,2-3.2,3.7-5.9,5.3c-2.7,1.5-6.2,2.3-10.5,2.3c-5.4,0-9.8-1.7-13.2-5c-3.3-3.3-5-8-5-14.2V211
		c0-6,1.6-10.7,4.8-14s7.5-5,12.9-5c5.3,0,9.3,1.4,12.2,4.1c2.9,2.7,4.3,6.4,4.2,11.2l-0.1,0.2h-6.8c0-3.1-0.8-5.6-2.4-7.3
		c-1.6-1.7-3.9-2.6-6.9-2.6c-3.3,0-5.8,1.1-7.7,3.4c-1.9,2.3-2.8,5.6-2.8,9.9v15.5c0,4.4,1,7.8,2.9,10.2s4.6,3.5,7.9,3.5
		c2.5,0,4.4-0.4,5.9-1.1c1.5-0.8,2.5-1.7,3.2-2.8v-12.1h-9.6v-5.3h16.9V238.1z"/>
	<path d="M172.8,239.4h21.1v5.5h-28.4v-52.2h7.3V239.4z"/>
	<path d="M242,220.7h-17.7v18.7h20.8v5.5h-28.1v-52.2H245v5.6h-20.7v16.8H242V220.7z"/>
	<path d="M299.8,198.3H286v46.6h-7.3v-46.6H265v-5.6h34.9V198.3z"/>
	<path d="M354,198.3h-13.8v46.6h-7.3v-46.6h-13.7v-5.6H354V198.3z"/>
</g>
</svg>
